<svg xmlns="http://www.w3.org/2000/svg" viewBox="0 0 87.77 53.85"><defs><style>.cls-1{fill:#011c53;}.cls-2{fill:#85a8ff;}.cls-3{fill:#e4f2fd;}.cls-4{fill:#f86174;}</style></defs><title>calculator</title><g id="圖層_2" data-name="圖層 2"><g id="圖層_1-2" data-name="圖層 1"><path class="cls-1" d="M85.52,24.6,42.6,49.55a12,12,0,0,1-10.92,0l-29.39-17A3.87,3.87,0,0,1,0,29.4v3a3.87,3.87,0,0,0,2.28,3.19l29.39,17a12.07,12.07,0,0,0,10.92,0L85.52,27.59a3.83,3.83,0,0,0,2.24-3.14v-3A3.83,3.83,0,0,1,85.52,24.6Z"/><path class="cls-2" d="M85.49,18.28c3,1.75,3,4.58,0,6.32L42.6,49.55a12,12,0,0,1-10.92,0l-29.39-17c-3-1.75-3-4.58,0-6.32l42.93-25a12,12,0,0,1,10.91,0Z"/><polygon class="cls-1" points="81.91 21.16 50.2 2.86 42.63 7.23 74.34 25.53 81.91 21.16"/><polygon class="cls-3" points="36.48 18.97 29.39 14.88 36.48 10.78 43.58 14.88 36.48 18.97"/><polygon class="cls-3" points="28.12 23.8 21.02 19.7 28.12 15.61 35.22 19.7 28.12 23.8"/><polygon class="cls-3" points="19.91 28.54 12.82 24.44 19.91 20.34 27.01 24.44 19.91 28.54"/><polygon class="cls-3" points="11.71 33.28 4.61 29.18 11.71 25.08 18.8 29.18 11.71 33.28"/><polygon class="cls-3" points="44.79 23.77 37.69 19.67 44.79 15.57 51.88 19.67 44.79 23.77"/><polygon class="cls-3" points="36.42 28.59 29.33 24.5 36.42 20.4 43.52 24.5 36.42 28.59"/><polygon class="cls-3" points="28.22 33.33 21.12 29.24 28.22 25.14 35.31 29.24 28.22 33.33"/><polygon class="cls-3" points="20.01 38.07 12.91 33.98 20.01 29.88 27.11 33.98 20.01 38.07"/><polygon class="cls-3" points="52.92 28.46 45.83 24.37 52.92 20.27 60.02 24.37 52.92 28.46"/><polygon class="cls-3" points="44.56 33.29 37.47 29.2 44.56 25.1 51.66 29.2 44.56 33.29"/><polygon class="cls-3" points="36.35 38.03 29.26 33.93 36.35 29.84 43.45 33.93 36.35 38.03"/><polygon class="cls-3" points="28.15 42.77 21.05 38.67 28.15 34.58 35.24 38.67 28.15 42.77"/><polygon class="cls-4" points="61.09 33.18 54 29.08 61.09 24.99 68.19 29.08 61.09 33.18"/><polygon class="cls-3" points="52.73 38.01 45.64 33.91 52.73 29.82 59.83 33.91 52.73 38.01"/><polygon class="cls-3" points="44.52 42.75 37.43 38.65 44.52 34.55 51.62 38.65 44.52 42.75"/><polygon class="cls-3" points="36.32 47.49 29.22 43.39 36.32 39.29 43.41 43.39 36.32 47.49"/></g></g></svg>