<svg xmlns="http://www.w3.org/2000/svg" viewBox="0 0 418 486.75"><defs><style>.cls-1,.cls-2,.cls-3,.cls-4{fill:none;stroke-miterlimit:10;}.cls-1{stroke:#ed4432;}.cls-2{stroke:#efb631;}.cls-3{stroke:#9fea34;}.cls-4{stroke:#4d4d4d;}</style></defs><title>frame</title><g id="圖層_2" data-name="圖層 2"><g id="圖層_1-2" data-name="圖層 1"><ellipse class="cls-1" cx="24.49" cy="25.3" rx="4.91" ry="8.67" transform="matrix(0.8, -0.6, 0.6, 0.8, -10.29, 19.8)"/><ellipse class="cls-2" cx="52.75" cy="41.62" rx="4.91" ry="8.67" transform="translate(-14.42 40.07) rotate(-36.95)"/><ellipse class="cls-3" cx="79.57" cy="57.1" rx="4.91" ry="8.67" transform="translate(-18.34 59.3) rotate(-36.95)"/><path class="cls-4" d="M408.79,485.47,10.65,255.6A20.31,20.31,0,0,1,.5,238V5.66A5.15,5.15,0,0,1,8.23,1.2L406.19,231a22.62,22.62,0,0,1,11.31,19.59V480.44A5.81,5.81,0,0,1,408.79,485.47Z"/></g></g></svg>