<svg xmlns="http://www.w3.org/2000/svg" viewBox="0 0 146.8 146.8"><defs><style>.cls-1{fill:#fff;stroke:#fff1e9;stroke-miterlimit:10;stroke-width:2px;}.cls-2{fill:#f77754;}.cls-3{fill:#88d9c3;}</style></defs><title>go</title><g id="圖層_2" data-name="圖層 2"><g id="圖層_1-2" data-name="圖層 1"><path class="cls-1" d="M130.95,92.73l11.66-11.66a10.81,10.81,0,0,0,0-15.34L130.95,54.07a10.84,10.84,0,0,1-3.19-7.67V29.91A10.88,10.88,0,0,0,116.89,19H100.4a10.84,10.84,0,0,1-7.67-3.19L81.07,4.19a10.81,10.81,0,0,0-15.34,0L54.07,15.85A10.84,10.84,0,0,1,46.4,19H29.91A10.88,10.88,0,0,0,19,29.91V46.4a10.84,10.84,0,0,1-3.19,7.67L4.19,65.73a10.81,10.81,0,0,0,0,15.34L15.85,92.73A10.84,10.84,0,0,1,19,100.4v16.49a10.88,10.88,0,0,0,10.86,10.86H46.4a10.84,10.84,0,0,1,7.67,3.19l11.66,11.66a10.81,10.81,0,0,0,15.34,0l11.66-11.66a10.84,10.84,0,0,1,7.67-3.19h16.49a10.88,10.88,0,0,0,10.86-10.86V100.4A10.84,10.84,0,0,1,130.95,92.73Z"/><path class="cls-2" d="M50.82,61a1.24,1.24,0,0,1,.8.57,1.4,1.4,0,0,1,.2.89.92.92,0,0,1-.45.67,1,1,0,0,1-.82.13L49.67,63c-.11,0-.16,0-.16.13a9,9,0,0,1-.44,3.15,1,1,0,0,1-.43.58l-.15.07a1.29,1.29,0,0,1-.88.09.82.82,0,0,1-.57-.38.9.9,0,0,1-.11-.79A6.82,6.82,0,0,0,47,61.31a.11.11,0,0,0-.08-.09.16.16,0,0,0-.12,0l-1.26.8a1,1,0,0,1-.84.14,1.09,1.09,0,0,1-.68-.49,1.07,1.07,0,0,1,.35-1.5l1.48-.93a.17.17,0,0,0,.06-.26l-.07-.12L45,57.59c-.06-.09-.14-.11-.25,0l-.12.07a.26.26,0,0,0-.13.28c.05.32.09.64.12,1a.85.85,0,0,1-.26.72,1.12,1.12,0,0,1-.18.14.93.93,0,0,1-.57.14,7.94,7.94,0,0,0-1,0c-.06,0-.1-.05-.09-.11l-.42.51a.24.24,0,0,0,0,.28L45.5,66a4.35,4.35,0,0,1,.63,1.39A1.66,1.66,0,0,1,46,68.45a4.11,4.11,0,0,1-1.33,1.39.28.28,0,0,1-.09.08,1.33,1.33,0,0,1-.9.18,1.63,1.63,0,0,1-1-.46.86.86,0,0,1-.32-.76.81.81,0,0,1,.39-.69l.57-.36a.41.41,0,0,0,.21-.24.46.46,0,0,0-.09-.33L40.5,62.63a.13.13,0,0,0-.1-.07.13.13,0,0,0-.11.05l-.4.5a1.3,1.3,0,0,1-.32.28,1.14,1.14,0,0,1-.58.17,1.2,1.2,0,0,1-1-.33v0a1.46,1.46,0,0,1-.23-.27,1.38,1.38,0,0,1-.22-.69,1.44,1.44,0,0,1,.35-1c.29-.33.57-.67.84-1a.22.22,0,0,0,0-.28L36.94,57a.14.14,0,0,0-.23-.05l-.73.46a1.31,1.31,0,0,1-1.39-2.21l.73-.46a.15.15,0,0,0,.05-.23l-1.66-2.62a1.16,1.16,0,0,1-.16-.92A1.24,1.24,0,0,1,35,50a1.15,1.15,0,0,1,.77.54l1.66,2.62a.14.14,0,0,0,.22.05,1.22,1.22,0,0,1,1-.16,1.32,1.32,0,0,1,1,1.56,1.21,1.21,0,0,1-.56.81.14.14,0,0,0-.05.23l1.43,2.27a.1.1,0,0,0,.08,0,.19.19,0,0,0,.12,0l0,0a1.1,1.1,0,0,1,.28-.26,1.13,1.13,0,0,1,.53-.17,1.08,1.08,0,0,1,.83.36s0,0,.05,0,0,0,0,0a19.79,19.79,0,0,0-.51-1.94,1.11,1.11,0,0,1,.41-1.28l.21-.11a1.07,1.07,0,0,1,.85,0,1,1,0,0,1,.39.36,1.77,1.77,0,0,1,.13.25,1.27,1.27,0,0,1,.06.23c0,.11.09.13.19.08l2.17-1.37a1.07,1.07,0,0,1,1.14,1.81l-.47.3c-.11.07-.13.15-.07.24l.83,1.32.05.08a.17.17,0,0,0,.26.06l.63-.4a1.06,1.06,0,0,1,.83-.15,1,1,0,0,1,.68.48,1.08,1.08,0,0,1,.15.83,1,1,0,0,1-.49.69l-.85.54a.2.2,0,0,0-.09.25l.15.39a.3.3,0,0,0,.22.2A15.55,15.55,0,0,1,50.82,61Zm-8.27-9,1.34-.85a.47.47,0,0,0,.23-.57.9.9,0,0,1,.07-.69.74.74,0,0,1,.55-.4,1.38,1.38,0,0,1,.89.1,1,1,0,0,1,.42.37,1.83,1.83,0,0,1,.13.25,2.19,2.19,0,0,1,0,1.45,2.45,2.45,0,0,1-1,1L43.3,53.91a2.83,2.83,0,0,1-2,.64q-.72-.19-1.58-1.56l-2.24-3.55a1.09,1.09,0,0,1-.15-.87,1.15,1.15,0,0,1,1.36-.86,1.08,1.08,0,0,1,.72.51l.62,1a.1.1,0,0,0,.09,0,.1.1,0,0,0,.09,0,18.47,18.47,0,0,0,1-1.61,1.5,1.5,0,0,1,.51-.54.87.87,0,0,1,.19-.09,1.32,1.32,0,0,1,.95-.07.85.85,0,0,1,.51.37l.1.16a.85.85,0,0,1-.1.81,23.42,23.42,0,0,1-2.09,2.72.22.22,0,0,0,0,.29l.35.55q.25.39.41.43A.81.81,0,0,0,42.55,52Zm15.73,6.21,1.34-.85a.72.72,0,0,1,.72,0,.9.9,0,0,1,.37.32.7.7,0,0,1,.1.24,1.64,1.64,0,0,1,0,1,1.32,1.32,0,0,1-.57.74l-.91.57a6.74,6.74,0,0,1-2.58,1,4.39,4.39,0,0,1-2.58-.46.09.09,0,0,0-.14.09,10.23,10.23,0,0,1,.25,1.94.8.8,0,0,1-.33.7l-.1.06a1,1,0,0,1-.68.15,1.15,1.15,0,0,1-.72-.35l-.11-.18a1.15,1.15,0,0,1-.17-.58q0-2.56-2.39-6.58a1,1,0,0,1-.11-.79,1,1,0,0,1,.44-.61l0,0a1,1,0,0,1,.8-.09.92.92,0,0,1,.6.42,23.93,23.93,0,0,1,1.37,2.69.77.77,0,0,0,.19.26,5.6,5.6,0,0,0,1.64,1,.07.07,0,0,0,.07,0,.05.05,0,0,0,0-.07L51,52.65c-.06-.09-.14-.1-.25,0l-1.66,1a1.14,1.14,0,0,1-1.22-1.93l3.33-2.1a.07.07,0,0,0,0-.08,0,0,0,0,0-.06,0,15.33,15.33,0,0,0-4.31-.37.85.85,0,0,1-.68-.29l-.08-.12a.87.87,0,0,1-.12-.59,1.57,1.57,0,0,1,.45-.81l.22-.17a1.3,1.3,0,0,1,.62-.2l.58,0a.2.2,0,0,0,.19-.18q.07-.85.07-1.89a.08.08,0,0,0-.06-.07.1.1,0,0,0-.09,0L45,46.64a1,1,0,0,1-.82.13,1.09,1.09,0,0,1-.82-1.3,1,1,0,0,1,.47-.68l4.24-2.68.08,0a.82.82,0,0,1,.19-.18.78.78,0,0,1,.45-.12h.56a1,1,0,0,1,.71.3,1.67,1.67,0,0,1,.16.2.94.94,0,0,1,.14.49,24.59,24.59,0,0,1-.15,4c0,.12,0,.18.14.18l.51.06a1.22,1.22,0,0,1,.9.59,1.38,1.38,0,0,1,.19,1l-.07.37s0,0,0,.06a.08.08,0,0,0,.08,0l.83-.52.06,0a1.06,1.06,0,0,1,.5-.29l.35-.14a.8.8,0,0,1,.54,0,.7.7,0,0,1,.36.38q.66,1.57,1.06,2.69a.78.78,0,0,1,0,.63.77.77,0,0,1-.49.42.83.83,0,0,1-.66,0,.84.84,0,0,1-.46-.48c-.2-.44-.33-.72-.37-.83s-.12-.13-.22-.07l-.67.42a.14.14,0,0,0-.05.22l1.45,2.29c.07.1.14.13.24.07l1.22-.77a1,1,0,0,1,.83-.14,1.13,1.13,0,0,1,.83,1.32,1,1,0,0,1-.49.69l-1.22.77a.14.14,0,0,0-.05.22l1.66,2.63c.07.1.14.13.24.07A8.18,8.18,0,0,0,58.28,58.22Z"/><path class="cls-2" d="M61.86,38.67c.09-.06.1-.14,0-.24l-.35-.55a.14.14,0,0,0-.22-.05L55.4,41.56a1.19,1.19,0,0,1-1.27-2L60,35.81a.14.14,0,0,0,.05-.22L60,35.45a1.31,1.31,0,0,1-.18-1,1.34,1.34,0,0,1,.61-.85l.18-.11a1.35,1.35,0,0,1,1.9.43l.09.14c.06.09.14.1.25,0L69,30.13a1.19,1.19,0,0,1,1.27,2l-6.2,3.91q-.16.1-.07.24l.35.55a.16.16,0,0,0,.26.06l3.85-2.43a1.34,1.34,0,0,1,1-.18,1.31,1.31,0,0,1,.87.61l3.65,5.78a1.31,1.31,0,0,1,.18,1,1.34,1.34,0,0,1-.61.85L63.56,48.93a1.36,1.36,0,0,1-1.9-.43L58,42.72a1.36,1.36,0,0,1,.43-1.9Zm15.94,2.8a1.18,1.18,0,0,1,.38,2.13l-4.26,2.69a0,0,0,0,0,0,0s0,0,0,0q3-.71,5.44-1.17a.7.7,0,0,1,.75.27.35.35,0,0,1,.08.09.72.72,0,0,1,0,.69l-.11.32a2.23,2.23,0,0,1-.71,1l-.2.16a2.34,2.34,0,0,1-.92.33q-2.13.29-4.58.79a.8.8,0,0,1-.79-.25.77.77,0,0,1-.12-.15.75.75,0,0,1-.09-.63l.17-.69a.11.11,0,0,0,0-.07.05.05,0,0,0-.07,0l-5.68,3.59a.05.05,0,0,0,0,.06,0,0,0,0,0,0,0l1.16,0a.81.81,0,0,1,.69.39A.76.76,0,0,1,69,52,31.07,31.07,0,0,1,66,56a2.62,2.62,0,0,1-.46.37,2,2,0,0,1-.56.25,2.23,2.23,0,0,1-1.22,0,.71.71,0,0,1-.47-.31,1.1,1.1,0,0,1-.1-.21.72.72,0,0,1,.17-.74A22.09,22.09,0,0,0,66.61,51s0-.05,0-.07a.05.05,0,0,0-.07,0L62.2,53.68a1.14,1.14,0,0,1-.9.15,1.15,1.15,0,0,1-.88-1.4,1.15,1.15,0,0,1,.52-.74l16-10.08A1.12,1.12,0,0,1,77.8,41.47Zm-9.31-3.83c.11-.07.13-.14.07-.24l-.35-.55a.17.17,0,0,0-.26-.06L60.63,41.4c-.09.06-.1.14,0,.25l.35.55a.14.14,0,0,0,.23,0Zm1.41,2.23c.11-.07.13-.15.07-.24l-.35-.55a.16.16,0,0,0-.26-.06L62,43.63c-.09.06-.11.14,0,.25l.35.55a.14.14,0,0,0,.22.05Zm1.42,2.25a.17.17,0,0,0,.06-.26L71,41.24c-.06-.09-.14-.11-.25,0l-7.32,4.62a.15.15,0,0,0-.05.23l.39.61c.07.11.14.13.24.07Z"/><path class="cls-2" d="M62.79,75.4A1,1,0,0,1,61.92,74l.46-1.15a.06.06,0,0,0-.08-.08L50.86,80a1.34,1.34,0,0,1-1,.18,1.31,1.31,0,0,1-.87-.61v0a1.4,1.4,0,0,1,.43-1.9l6.33-4a.14.14,0,0,0,.05-.22l-.65-1a1.31,1.31,0,0,1-.18-1,1.35,1.35,0,0,1,.61-.85l.14-.09a1.36,1.36,0,0,1,1.9.43l.65,1c.06.09.14.1.24,0l6.43-4.06a1.39,1.39,0,0,1,1.9.43v0a1.31,1.31,0,0,1,.18,1,1.34,1.34,0,0,1-.61.85l-3.67,2.32s0,0,0,.05,0,0,.05,0a44.24,44.24,0,0,1,6.38.63,1.11,1.11,0,0,1,.76.51A1.17,1.17,0,0,1,70,74.84l-.15.42a1.39,1.39,0,0,1-.57.72l-.14.09a1.64,1.64,0,0,1-1.09.11A40,40,0,0,0,62.79,75.4Zm-8.35,3.81a2.17,2.17,0,0,1,.52-1,2.68,2.68,0,0,1,.39-.3,2,2,0,0,1,.63-.26l.39-.08a.92.92,0,0,1,.87.25.85.85,0,0,1,.29.86,27.36,27.36,0,0,1-1.69,5.84,1.61,1.61,0,0,1-.62.72l-.16.1a1.76,1.76,0,0,1-1.13.13l-.5-.1a.88.88,0,0,1-.65-.42.91.91,0,0,1,0-1A19,19,0,0,0,54.44,79.21Zm9.07-.62a1.65,1.65,0,0,1,.23-1.08,1.51,1.51,0,0,1,.49-.5,1.48,1.48,0,0,1,.39-.16l.4-.11a1.2,1.2,0,0,1,1,.14,1.2,1.2,0,0,1,.5.84,17.66,17.66,0,0,1-.23,5.14c0,.12,0,.17.11.18a20.06,20.06,0,0,0,7.94-1.45.79.79,0,0,1,.79.11.83.83,0,0,1,.23.24.78.78,0,0,1,.1.51c0,.17,0,.34,0,.5a2.13,2.13,0,0,1-.35,1.16,1.7,1.7,0,0,1-.53.52,1.64,1.64,0,0,1-.36.17A19.9,19.9,0,0,1,65.57,86a.21.21,0,0,0-.25.13,24.68,24.68,0,0,1-4.69,7.26,1.62,1.62,0,0,1-.36.31,1.82,1.82,0,0,1-.65.24,2.23,2.23,0,0,1-1.16-.18L58,93.53a.81.81,0,0,1-.51-.64.85.85,0,0,1,.23-.81,22.52,22.52,0,0,0,4.72-6.59c0-.1,0-.17-.1-.21A19.82,19.82,0,0,1,58,83.2a1.18,1.18,0,0,1-.36-.35,1.31,1.31,0,0,1-.18-.46,1.12,1.12,0,0,1,.3-1l.07-.07a1.35,1.35,0,0,1,.34-.3,1.48,1.48,0,0,1,.61-.22,1.66,1.66,0,0,1,1.08.23,14.13,14.13,0,0,0,3.39,1.48.15.15,0,0,0,.2-.12A13,13,0,0,0,63.51,78.59Z"/><path class="cls-2" d="M79.58,69.55a.1.1,0,0,0,0,.08.08.08,0,0,0,.08,0l9.87-6.22a1.23,1.23,0,0,1,1-.16,1.24,1.24,0,0,1,.72.54l.07.12a48.12,48.12,0,0,1,2.24,5A5.07,5.07,0,0,1,94,71.52a2.89,2.89,0,0,1-1.15,1.8,15.23,15.23,0,0,1-1.4,1,1.39,1.39,0,0,1-1,.2,1.93,1.93,0,0,1-1-.46,1.7,1.7,0,0,1-.17-.22.94.94,0,0,1-.14-.49.71.71,0,0,1,.34-.6l0,0c.27-.15.58-.34.93-.56a1.16,1.16,0,0,0,.6-.74q.27-1.05-1.58-4.82a.15.15,0,0,0-.24-.07l-1.44.91a.24.24,0,0,0-.11.26,19.82,19.82,0,0,1-.09,8.08,1.41,1.41,0,0,1-.64.87,1.74,1.74,0,0,1-1.11.26.14.14,0,0,0-.1,0,1.08,1.08,0,0,1-.91-1.36,14.71,14.71,0,0,0,.35-6.26.11.11,0,0,0-.07-.08.12.12,0,0,0-.12,0l-1.44.91a.28.28,0,0,0-.13.27,21.17,21.17,0,0,1-1.64,8.42,1.47,1.47,0,0,1-.58.7.85.85,0,0,1-.19.09A1.76,1.76,0,0,1,80,79.7l-.17-.06a.91.91,0,0,1-.63-.43l-.06-.1a.94.94,0,0,1,0-.88,16.3,16.3,0,0,0,1.68-6.16.08.08,0,0,0,0-.1.1.1,0,0,0-.1,0l-1.46.92a.43.43,0,0,0-.18.28,24.43,24.43,0,0,1-1,3,1.57,1.57,0,0,1-.6.71l-.19.09a1.76,1.76,0,0,1-1.13.13l-.18,0a1,1,0,0,1-.64-.45.93.93,0,0,1-.07-1,16.75,16.75,0,0,0,1.61-5.76s0,0,0-.07a.08.08,0,0,0-.09,0l-.47.3a1.34,1.34,0,0,1-1,.18,1.31,1.31,0,0,1-.87-.61l-3.69-5.84a1.32,1.32,0,0,1-.18-1,1.35,1.35,0,0,1,.61-.85L82,55a1.35,1.35,0,0,1,1-.18,1.31,1.31,0,0,1,.87.61l3.69,5.84a1.31,1.31,0,0,1,.18,1,1.34,1.34,0,0,1-.61.85l-7.4,4.67a.29.29,0,0,0-.13.27Q79.65,68.79,79.58,69.55ZM73.63,63c-.11.07-.13.15-.07.24l.61,1c.06.09.14.11.25,0l8.19-5.17a.15.15,0,0,0,.05-.23l-.61-1a.14.14,0,0,0-.22-.05Zm1.93,3.06c-.11.07-.13.15-.07.24l.62,1c.06.09.14.11.25,0l8.19-5.17a.14.14,0,0,0,.05-.23L84,61a.14.14,0,0,0-.23-.05Z"/><path class="cls-3" d="M89.78,115.68a11.62,11.62,0,0,1-3.9,1.79,9.72,9.72,0,0,1-4,.13A9.87,9.87,0,0,1,78,115.91a13.88,13.88,0,0,1-3.47-3.58,13.74,13.74,0,0,1-2.09-4.49,10.33,10.33,0,0,1-.21-4.33,10.08,10.08,0,0,1,1.5-3.78,10.9,10.9,0,0,1,3-3A9.37,9.37,0,0,1,82.25,95a1.48,1.48,0,0,1,1.24.71,1.68,1.68,0,0,1,.29,1.19l0,.23a1.6,1.6,0,0,1-.61,1.13l-.14.1a2.15,2.15,0,0,1-1.12.38A6,6,0,0,0,76.41,104a8.43,8.43,0,0,0,1.75,5.58,8.75,8.75,0,0,0,4.63,3.75A6,6,0,0,0,88,112.27a4.56,4.56,0,0,0,1.77-2.08.42.42,0,0,0-.08-.37l-2.23-3.23c-.09-.13-.19-.16-.3-.08l-1.64,1.13a1.69,1.69,0,0,1-1.28.28,1.65,1.65,0,0,1-1.12-.72l-.1-.14a1.75,1.75,0,0,1,.44-2.41l3.67-2.53a1.75,1.75,0,0,1,2.41.44l3.73,5.4a3,3,0,0,1,.45,3.08A10.69,10.69,0,0,1,89.78,115.68Z"/><path class="cls-3" d="M111,97.19a9.83,9.83,0,0,1-11.85,8.18q-4-1-7.07-5.42t-2.52-8.45a10.05,10.05,0,0,1,11.87-8.2q4,1,7,5.35T111,97.19Zm-10.76,4a4.74,4.74,0,0,0,6.49-4.48,9.76,9.76,0,0,0-2-5.49,9.41,9.41,0,0,0-4.38-3.76A4.85,4.85,0,0,0,93.87,92a9.48,9.48,0,0,0,2,5.42A9.75,9.75,0,0,0,100.28,101.2Z"/></g></g></svg>