<svg xmlns="http://www.w3.org/2000/svg" viewBox="0 0 420.7 52.44"><defs><style>.cls-1{fill:#0dbed0;}.cls-2{fill:#f78777;}</style></defs><title>h1</title><g id="圖層_2" data-name="圖層 2"><g id="圖層_1-2" data-name="圖層 1"><path class="cls-1" d="M7.85,25.84a2.61,2.61,0,0,1,1.93.8,2.65,2.65,0,0,1,.78,1.91V40.48a1.14,1.14,0,0,0,.18.64q2.61,4.1,9.73,4.36,3.54.14,7.39.14,6.2,0,13.13-.37h.13a1.58,1.58,0,0,1,1.34.69A1.81,1.81,0,0,1,42.82,47a2.17,2.17,0,0,1-.09.59l-.09.28a4,4,0,0,1-1.29,2,3.44,3.44,0,0,1-2.11.8q-5.64.2-10.55.19-4.46,0-8.27-.14a21.67,21.67,0,0,1-7-1.33,12.08,12.08,0,0,1-4.89-3.63c-.15-.18-.31-.2-.46,0C6.69,47,5.38,48.19,4.13,49.29a1.9,1.9,0,0,1-1.33.55,1.25,1.25,0,0,1-.46-.09,1.82,1.82,0,0,1-1.42-1.1L.6,48a2.79,2.79,0,0,1-.32-1.28,2.84,2.84,0,0,1,.13-.88A3.42,3.42,0,0,1,1.65,44,38.88,38.88,0,0,0,5,41.44a.72.72,0,0,0,.28-.59V31.3c0-.21-.12-.32-.37-.32H2.57a2.45,2.45,0,0,1-1.81-.76,2.54,2.54,0,0,1,0-3.62,2.45,2.45,0,0,1,1.81-.76Zm2.29-11.71a2.29,2.29,0,0,1,.65,1.61,1.57,1.57,0,0,1,0,.37A2.54,2.54,0,0,1,9.68,17.9l-.27.23a2.7,2.7,0,0,1-1.52.5,2.28,2.28,0,0,1-.45,0,2.62,2.62,0,0,1-1.75-1,38.77,38.77,0,0,0-3.53-3.81,2.21,2.21,0,0,1-.69-1.61,2.11,2.11,0,0,1,.87-1.79,3.15,3.15,0,0,1,2-.69h.09a3.19,3.19,0,0,1,2.07.83A41.12,41.12,0,0,1,10.14,14.13Zm32,18a2.61,2.61,0,0,1,.69,1.79A2.88,2.88,0,0,1,41.91,36a2.16,2.16,0,0,1-1.57.69.41.41,0,0,1-.18,0,2.18,2.18,0,0,1-1.7-.87,54.13,54.13,0,0,0-4.68-4.68c-.06-.06-.11-.08-.16-.05a.15.15,0,0,0-.07.14,20.31,20.31,0,0,1,.19,2.61,17.44,17.44,0,0,1-.37,3.63,8.28,8.28,0,0,1-2.07,4.22,6.47,6.47,0,0,1-2.38,1.72,8.73,8.73,0,0,1-3,.53H25a2.56,2.56,0,0,1-1.81-.76,3.45,3.45,0,0,1-1-1.85,2.49,2.49,0,0,1-.05-.46,1.69,1.69,0,0,1,.37-1.06,1.43,1.43,0,0,1,1.24-.69h.09c.34,0,.67,0,1,0a3.21,3.21,0,0,0,1.52-.28A3.43,3.43,0,0,0,28,36.81a9.29,9.29,0,0,0,.55-3.44v-.28A.15.15,0,0,0,28.5,33a.19.19,0,0,0-.18,0,40.42,40.42,0,0,1-11.48,7,3,3,0,0,1-1.14.23,3.44,3.44,0,0,1-1-.13,3.94,3.94,0,0,1-1.83-1.29,1.6,1.6,0,0,1-.37-1.05,1.75,1.75,0,0,1,.05-.46,1.54,1.54,0,0,1,1.05-1.15,40.34,40.34,0,0,0,7.78-3.63,25.6,25.6,0,0,0,5.9-4.72.55.55,0,0,0,.14-.56,12.15,12.15,0,0,0-.65-1.56c-.09-.18-.22-.19-.41,0a43.15,43.15,0,0,1-8.72,5.64,2.73,2.73,0,0,1-1.19.28,3.59,3.59,0,0,1-.78-.09,3.32,3.32,0,0,1-1.7-1.1,1.7,1.7,0,0,1-.41-1.11,1.47,1.47,0,0,1,0-.36,1.58,1.58,0,0,1,1-1.2,37,37,0,0,0,9.63-5.6.31.31,0,0,0,.05-.5q-.51-.6-.87-1a.35.35,0,0,0-.51-.1,45.11,45.11,0,0,1-5.69,3.17,3.16,3.16,0,0,1-1.38.32,3.81,3.81,0,0,1-.82-.09,3.75,3.75,0,0,1-2-1.19l0,0a1.58,1.58,0,0,1-.51-1.15,1.8,1.8,0,0,1,1.11-1.65,34.57,34.57,0,0,0,9.13-5.09.13.13,0,0,0,0-.14.1.1,0,0,0-.11-.09H14.69a2.23,2.23,0,0,1-1.61-.67,2.27,2.27,0,0,1,0-3.26A2.26,2.26,0,0,1,14.69,10H40.25a2.26,2.26,0,0,1,1.61.66,2.27,2.27,0,0,1,0,3.26,2.23,2.23,0,0,1-1.61.67h-10a.74.74,0,0,0-.6.27,30.88,30.88,0,0,1-2.71,2.66.29.29,0,0,0,0,.46,21.43,21.43,0,0,1,3.54,4.36c.12.19.26.2.41.05a51,51,0,0,0,4.41-4.41,3.06,3.06,0,0,1,1.88-1.1,2.35,2.35,0,0,1,.64-.09,3.09,3.09,0,0,1,1.51.41l.23.09a2,2,0,0,1,1,1.52V19a1.73,1.73,0,0,1-.64,1.38C38,22.17,36.2,23.68,34.52,25c-.16.15-.16.29,0,.41A57.41,57.41,0,0,1,42.09,32.13Z"/><path class="cls-1" d="M85.05,33.23a2.66,2.66,0,0,1-2.71,2.71H71.6a.33.33,0,0,0-.37.36v.92a.33.33,0,0,0,.37.37H84a2,2,0,0,1,1.47.59,2.05,2.05,0,0,1,0,2.9,2,2,0,0,1-1.47.59H71.6a.33.33,0,0,0-.37.37v1a.33.33,0,0,0,.37.37H87a2,2,0,0,1,1.47.62,2.1,2.1,0,0,1,0,2.94,2,2,0,0,1-1.47.62H71.6a.33.33,0,0,0-.37.37v.87a2.68,2.68,0,0,1-2.7,2.71H68.3a2.66,2.66,0,0,1-1.91-.79,2.59,2.59,0,0,1-.8-1.92v-.87c0-.25-.11-.37-.32-.37h-15a2,2,0,0,1-1.47-.62,2.1,2.1,0,0,1,0-2.94,2,2,0,0,1,1.47-.62h15c.21,0,.32-.12.32-.37V42c0-.24-.11-.37-.32-.37H53.2a2,2,0,0,1-1.47-.59,2.05,2.05,0,0,1,0-2.9,2,2,0,0,1,1.47-.59H65.27c.21,0,.32-.12.32-.37V36.3c0-.24-.11-.36-.32-.36H54.34A1.86,1.86,0,0,1,53,35.36a1.94,1.94,0,0,1,0-2.75A1.86,1.86,0,0,1,54.34,32H65.27a.28.28,0,0,0,.32-.32v-1.1c0-.24-.11-.37-.32-.37h-16a2,2,0,0,1,0-4h16a.29.29,0,0,0,.32-.33v-1c0-.24-.11-.37-.32-.37H54.8A1.87,1.87,0,0,1,53.45,24a1.81,1.81,0,0,1-.57-1.35,1.88,1.88,0,0,1,.57-1.38,1.85,1.85,0,0,1,1.35-.57H65.36a.21.21,0,0,0,.23-.23V19.32a.78.78,0,0,1,.25-.57.85.85,0,0,1,.62-.26v0l-.37-.19a1.48,1.48,0,0,1-.78-1.37,1.65,1.65,0,0,1,.55-1.24c.06,0,.09-.07.07-.12a.1.1,0,0,0-.11-.07H61.6a.19.19,0,0,0-.19.1.19.19,0,0,0,0,.18c.15.21.31.44.46.69a1.87,1.87,0,0,1,.28,1,1.73,1.73,0,0,1-.19.78,2,2,0,0,1-1.33,1.24,2.62,2.62,0,0,1-.82.14,2.66,2.66,0,0,1-1.15-.28,3.2,3.2,0,0,1-1.47-1.37c-.43-.77-.9-1.55-1.42-2.34a.3.3,0,0,0-.21-.1.17.17,0,0,0-.16.1c-.8,1.13-1.59,2.18-2.39,3.16a2.41,2.41,0,0,1-1.83,1,2.27,2.27,0,0,1-.42.05,2.82,2.82,0,0,1-1.69-.55.14.14,0,0,1-.1-.05,2,2,0,0,1-1-1.51v-.32a2.1,2.1,0,0,1,.6-1.47A31.52,31.52,0,0,0,52.74,10a3.18,3.18,0,0,1,1.6-1.47,2.8,2.8,0,0,1,1.29-.32,3.11,3.11,0,0,1,.87.13l.32.1a2,2,0,0,1,1.29,1.1,2.47,2.47,0,0,1,.14.78,2.45,2.45,0,0,1-.19.87.19.19,0,0,0,0,.18.15.15,0,0,0,.14.1H66a2,2,0,0,1,1.42.57,1.86,1.86,0,0,1,.6,1.4s0,.06.13.09a24.59,24.59,0,0,0,2.62-3.58A3.78,3.78,0,0,1,72.34,8.4a3.09,3.09,0,0,1,1.37-.32,3.59,3.59,0,0,1,.78.09l.05,0a2.07,2.07,0,0,1,1.61,2,2.08,2.08,0,0,1-.28,1,.19.19,0,0,0,0,.18.17.17,0,0,0,.18.1H87.53A2,2,0,0,1,89,12a1.89,1.89,0,0,1,.6,1.42,2,2,0,0,1-.6,1.45,1.93,1.93,0,0,1-1.42.59H81a.19.19,0,0,0-.18.1.15.15,0,0,0,0,.18A1.54,1.54,0,0,1,81,16a2.09,2.09,0,0,1,.37,1.15,2.35,2.35,0,0,1-.09.64A2.08,2.08,0,0,1,80,19.09a3.13,3.13,0,0,1-1,.18,3.76,3.76,0,0,1-1-.13,3.17,3.17,0,0,1-1.6-1.29c-.46-.7-.95-1.41-1.47-2.11a.73.73,0,0,0-.55-.28h-1a.81.81,0,0,0-.6.23,23.37,23.37,0,0,1-2.48,2.71.06.06,0,0,0,0,.09.94.94,0,0,1,1,1v1c0,.15.1.23.28.23H82.34a2.6,2.6,0,0,1,1.93.8,2.65,2.65,0,0,1,.78,1.91v2.47c0,.22.12.33.37.33H87.9a2,2,0,0,1,0,4H85.42a.33.33,0,0,0-.37.37ZM71.6,24.55a.33.33,0,0,0-.37.37v1c0,.22.13.33.37.33H79c.22,0,.32-.11.32-.33v-1c0-.24-.1-.37-.32-.37Zm0,5.69a.33.33,0,0,0-.37.37v1.1c0,.22.13.32.37.32H79a.28.28,0,0,0,.32-.32v-1.1c0-.24-.1-.37-.32-.37Z"/><path class="cls-1" d="M122.23,23.31a2,2,0,0,1,0-3.21l2-1.42a.11.11,0,0,0,.07-.14c0-.06,0-.09-.11-.09H97.53a2.63,2.63,0,0,1-1.9-.78,2.56,2.56,0,0,1-.8-1.93v-.05a2.73,2.73,0,0,1,2.7-2.7h14.74a.29.29,0,0,0,.32-.32V10.28a2.6,2.6,0,0,1,.8-1.93,2.65,2.65,0,0,1,1.91-.78h.32a2.66,2.66,0,0,1,2.71,2.71v2.39c0,.21.12.32.36.32h15a2.73,2.73,0,0,1,2.7,2.7v.05a2.56,2.56,0,0,1-.8,1.93,2.63,2.63,0,0,1-1.9.78h-8.54s-.06,0-.09.07,0,.08,0,.11a87.12,87.12,0,0,1,10,7.76,2.19,2.19,0,0,1,.74,1.65,2.3,2.3,0,0,1-1,1.93l-.68.55a2.76,2.76,0,0,1-1.7.6h-.32a3.28,3.28,0,0,1-1.93-1A79.77,79.77,0,0,0,122.23,23.31Zm-2.16,6.06a3.31,3.31,0,0,1,1.51-1.56,3,3,0,0,1,1.34-.32,2.94,2.94,0,0,1,.82.14l.78.23A2.35,2.35,0,0,1,126,29.14a2.51,2.51,0,0,1,.18.92,2.47,2.47,0,0,1-.23,1,34.88,34.88,0,0,1-5.78,8.31c-.19.15-.19.29,0,.41a39.52,39.52,0,0,0,14.73,5.92,1.54,1.54,0,0,1,1.19,1,1.51,1.51,0,0,1,.14.64,1.56,1.56,0,0,1-.36,1l-.56.82a4,4,0,0,1-1.79,1.56,3.21,3.21,0,0,1-1.42.33,2.88,2.88,0,0,1-.78-.1,38.92,38.92,0,0,1-15.6-7.16.43.43,0,0,0-.55,0A48.83,48.83,0,0,1,99.78,50.9a3.19,3.19,0,0,1-.91.14,3.7,3.7,0,0,1-1.34-.28,4.43,4.43,0,0,1-1.74-1.51c-.18-.25-.37-.51-.55-.78a1.63,1.63,0,0,1-.32-1,1.48,1.48,0,0,1,.14-.64,1.66,1.66,0,0,1,1.23-1.1,44.31,44.31,0,0,0,14.78-6c.19-.13.2-.28.05-.46A39,39,0,0,1,106,31.21a2.4,2.4,0,0,1-.23-1,2.64,2.64,0,0,1,.18-1A2.2,2.2,0,0,1,107.45,28l.18-.05a2.84,2.84,0,0,1,2.11.14,3.18,3.18,0,0,1,1.56,1.51,27.79,27.79,0,0,0,4.09,6,.28.28,0,0,0,.46,0A25.3,25.3,0,0,0,120.07,29.37Zm-15.74-8.49a4.23,4.23,0,0,1,2-1.19,5.54,5.54,0,0,1,1-.09,3.82,3.82,0,0,1,1.34.23l.73.27A2.18,2.18,0,0,1,110.62,22a1.74,1.74,0,0,1-.51,1.2,54.21,54.21,0,0,1-9,7.94,3.22,3.22,0,0,1-1.79.55H99a3.49,3.49,0,0,1-2-1c-.24-.24-.49-.47-.73-.69a1.71,1.71,0,0,1-.64-1.37,1.77,1.77,0,0,1,1-1.65A37.57,37.57,0,0,0,104.33,20.88Z"/><path class="cls-1" d="M156.28,31.21a.19.19,0,0,0,0,.18.15.15,0,0,0,.14.09h23a2.42,2.42,0,0,1,1.84.78,2.49,2.49,0,0,1,.64,1.66v.27a95.3,95.3,0,0,1-1.56,10.74c-.55,2.39-1.23,4-2,4.73a5.68,5.68,0,0,1-3.81,1.79,30.71,30.71,0,0,1-3.35.14,2.76,2.76,0,0,1-1.86-.71,3.76,3.76,0,0,1-1.12-1.77,2.62,2.62,0,0,1,0-.55,1.82,1.82,0,0,1,.28-1,1.41,1.41,0,0,1,1.19-.64h.09c.61,0,1.32,0,2.14,0a2.3,2.3,0,0,0,1.76-.6q1.56-1.47,2.43-9.68c0-.25-.07-.37-.32-.37H172.3a.49.49,0,0,0-.46.32A39,39,0,0,1,163.21,50a2.76,2.76,0,0,1-2,.78,3.41,3.41,0,0,1-2.11-.74.32.32,0,0,0-.14-.14,1.94,1.94,0,0,1-.78-1.65,2,2,0,0,1,.69-1.56,28.81,28.81,0,0,0,7.16-10,.23.23,0,0,0,0-.21.25.25,0,0,0-.21-.11h-3.35a.56.56,0,0,0-.5.32A41.84,41.84,0,0,1,150.41,49a2.87,2.87,0,0,1-1.7.55,1.73,1.73,0,0,1-.41,0,3.52,3.52,0,0,1-2-1,1.84,1.84,0,0,0-.23-.27,1.8,1.8,0,0,1-.6-1.38v-.23a1.85,1.85,0,0,1,.92-1.47,32,32,0,0,0,9.27-8.49.15.15,0,0,0,0-.21.19.19,0,0,0-.16-.11h-3.39a.83.83,0,0,0-.6.27,47.56,47.56,0,0,1-4.77,4,3.09,3.09,0,0,1-1.75.55,2.1,2.1,0,0,1-.41,0,3.52,3.52,0,0,1-2-1,1.84,1.84,0,0,0-.27-.23,1.92,1.92,0,0,1-.6-1.42,1.84,1.84,0,0,1,.92-1.7,33.05,33.05,0,0,0,8.72-7.89s0-.09,0-.16-.08-.12-.14-.12h-1.1a2.65,2.65,0,0,1-1.91-.78,2.6,2.6,0,0,1-.8-1.93V12.3a2.6,2.6,0,0,1,.8-1.93,2.65,2.65,0,0,1,1.91-.78h25.52a2.63,2.63,0,0,1,1.9.78,2.57,2.57,0,0,1,.81,1.93V25.88a2.57,2.57,0,0,1-.81,1.93,2.63,2.63,0,0,1-1.9.78H158.4a.57.57,0,0,0-.51.32A27.16,27.16,0,0,1,156.28,31.21Zm-3-17.12c-.24,0-.36.11-.36.32v2.25c0,.21.12.32.36.32H172.3a.28.28,0,0,0,.32-.32V14.41a.28.28,0,0,0-.32-.32Zm0,7.11c-.24,0-.36.11-.36.32v2.3c0,.21.12.32.36.32H172.3a.28.28,0,0,0,.32-.32v-2.3a.28.28,0,0,0-.32-.32Z"/><path class="cls-2" d="M224.41,26.58c0-.15-.1-.22-.28-.22h-2.86c-.29,0-.44.13-.44.38v20a9.29,9.29,0,0,1-.38,3A3.1,3.1,0,0,1,219,51.35a7.88,7.88,0,0,1-3.35.87h-.22a2.9,2.9,0,0,1-1.82-.65,3.7,3.7,0,0,1-1.21-1.86,1.81,1.81,0,0,1,.25-1.64,1.67,1.67,0,0,1,1.46-.77h.44q.66,0,.66-.66V43.2a.39.39,0,0,0-.44-.44h-5.17a.39.39,0,0,0-.44.44v6.29a2.82,2.82,0,0,1-2.8,2.79,2.73,2.73,0,0,1-2-.82,2.7,2.7,0,0,1-.83-2V26.74a.34.34,0,0,0-.38-.38,2.88,2.88,0,0,1-2.09-.85,2.81,2.81,0,0,1-.88-2.11V20.45a2.7,2.7,0,0,1,.85-2,2.75,2.75,0,0,1,2-.85c.25,0,.38-.11.38-.33V4.92a3.13,3.13,0,0,1,.94-2.27,3.09,3.09,0,0,1,2.31-1h11.16a3.12,3.12,0,0,1,2.31,1,3.16,3.16,0,0,1,.93,2.27V17.23a.34.34,0,0,0,.39.38,2.94,2.94,0,0,1,2.14.87,2.91,2.91,0,0,1,.88,2.14v2.89c0,.3.13.44.38.44H249a2.25,2.25,0,0,1,2.2,2.22,2.1,2.1,0,0,1-.66,1.55,2.12,2.12,0,0,1-1.54.66H226.17a1.69,1.69,0,0,1-1.24-.52A1.73,1.73,0,0,1,224.41,26.58ZM219,24.39a.34.34,0,0,0,.38-.38V22.58c0-.29-.13-.43-.38-.43H205.38a.38.38,0,0,0-.44.43V24c0,.25.15.38.44.38Zm-10.45-18c-.26,0-.39.14-.39.43v10.4a.34.34,0,0,0,.39.38h1.15a.34.34,0,0,0,.39-.38V11.92a3.28,3.28,0,0,1,3.24-3.23h2.26c.29,0,.44-.12.44-.38V6.83a.38.38,0,0,0-.44-.43Zm6.16,24.93c.29,0,.44-.12.44-.38V29.31a.39.39,0,0,0-.44-.44h-5.17a.39.39,0,0,0-.44.44V31c0,.26.15.38.44.38Zm-5.61,6.57c0,.25.15.38.44.38h5.17c.29,0,.44-.13.44-.38V36.09c0-.25-.15-.38-.44-.38h-5.17c-.29,0-.44.13-.44.38Zm4.56-20.67a.34.34,0,0,0,.39.38h1.54c.29,0,.44-.13.44-.38V12.91a.39.39,0,0,0-.44-.44h-1.54c-.26,0-.39.14-.39.44Zm31.07,29.31a.32.32,0,0,0,0,.27.23.23,0,0,0,.22.11h4.51a2.35,2.35,0,1,1,0,4.7H225.56a2.32,2.32,0,0,1-1.68-.68,2.39,2.39,0,0,1,0-3.34,2.32,2.32,0,0,1,1.68-.68H230a.29.29,0,0,0,.22-.14.22.22,0,0,0,.06-.24l-.55-1.37a3.39,3.39,0,0,1-.22-1.2,3.25,3.25,0,0,1,.22-1.15,2.61,2.61,0,0,1,1.65-1.59c0-.11,0-.16-.06-.16h-1.76a3.17,3.17,0,0,1-2.28-.93,3.08,3.08,0,0,1-1-2.3V33.41a3.08,3.08,0,0,1,1-2.3,3.2,3.2,0,0,1,2.28-.92h16.55a3.17,3.17,0,0,1,2.31.92,3.1,3.1,0,0,1,.94,2.3v4.43a3.1,3.1,0,0,1-.94,2.3,3.14,3.14,0,0,1-2.31.93h-1.65a0,0,0,0,0-.05,0s0,.06.05.06a2.3,2.3,0,0,1,1.6,1.31,2.6,2.6,0,0,1,.16.93,2.44,2.44,0,0,1-.27,1.09C245.56,45.21,245.15,45.88,244.75,46.54ZM247,4.7a3.17,3.17,0,0,1,2.28.93,3.08,3.08,0,0,1,1,2.3V18.81a3.08,3.08,0,0,1-1,2.3A3.17,3.17,0,0,1,247,22H228.8a3.17,3.17,0,0,1-2.28-.93,3.08,3.08,0,0,1-1-2.3V7.93a3.08,3.08,0,0,1,1-2.3,3.17,3.17,0,0,1,2.28-.93h2.59a.38.38,0,0,0,.44-.43V2.35a2.18,2.18,0,0,1,.69-1.61,2.31,2.31,0,0,1,3.29,0,2.18,2.18,0,0,1,.69,1.61V4.27c0,.29.13.43.39.43h1.59a.38.38,0,0,0,.44-.43V2.41a2.25,2.25,0,0,1,.69-1.67,2.38,2.38,0,0,1,3.35,0,2.25,2.25,0,0,1,.69,1.67V4.27c0,.29.13.43.39.43ZM230.89,8.86a.39.39,0,0,0-.44.44v1.58a.39.39,0,0,0,.44.44h1.6c.25,0,.38-.15.38-.44V9.3c0-.3-.13-.44-.38-.44Zm0,6.45a.39.39,0,0,0-.44.44v1.64c0,.25.15.38.44.38h1.6a.34.34,0,0,0,.38-.38V15.75c0-.29-.13-.44-.38-.44Zm1.27,18.76c-.26,0-.39.14-.39.43v2.25c0,.29.13.43.39.43h11.16a.38.38,0,0,0,.44-.43V34.5a.38.38,0,0,0-.44-.43Zm9.51,7.43a.3.3,0,0,0,0-.3.35.35,0,0,0-.28-.13h-7.75a.21.21,0,0,0-.22.13.27.27,0,0,0,0,.25,21.1,21.1,0,0,1,2.25,5.09.48.48,0,0,0,.5.38h3a.6.6,0,0,0,.6-.38Q241,43.53,241.67,41.5ZM236.5,10.88c0,.29.13.44.39.44h1.59a.39.39,0,0,0,.44-.44V9.3a.39.39,0,0,0-.44-.44h-1.59c-.26,0-.39.14-.39.44Zm2.42,4.87a.39.39,0,0,0-.44-.44h-1.59c-.26,0-.39.15-.39.44v1.64a.34.34,0,0,0,.39.38h1.59c.29,0,.44-.13.44-.38Zm5.66-4.43c.26,0,.39-.15.39-.44V9.3c0-.3-.13-.44-.39-.44h-1.65c-.29,0-.43.14-.43.44v1.58a.38.38,0,0,0,.43.44Zm0,6.45a.34.34,0,0,0,.39-.38V15.75c0-.29-.13-.44-.39-.44h-1.65a.38.38,0,0,0-.43.44v1.64c0,.25.14.38.43.38Z"/><path class="cls-2" d="M259.1,47.52a1.78,1.78,0,0,1-1.1,1,1.87,1.87,0,0,1-1.48-.14,1.65,1.65,0,0,1-.88-1.09,1.91,1.91,0,0,1-.11-.66,2,2,0,0,1,.16-.82,29.62,29.62,0,0,0,1.6-9,1.57,1.57,0,0,1,.63-1.18,1.44,1.44,0,0,1,1.29-.3,1.91,1.91,0,0,1,1.27.74,2.07,2.07,0,0,1,.44,1.45C260.62,42,260,45.33,259.1,47.52Zm37.78-9.62A3.28,3.28,0,0,1,298,36a2.94,2.94,0,0,1,1.87-.65H300a2.45,2.45,0,0,1,1.87.92,2.36,2.36,0,0,1,.6,1.54,2.1,2.1,0,0,1-.05.43,18.63,18.63,0,0,1-.61,2.79.91.91,0,0,0,.22.71,65.9,65.9,0,0,1,4.68,5.2,2.31,2.31,0,0,1,.6,1.53,2.28,2.28,0,0,1-.05.44,2.58,2.58,0,0,1-1,1.75,2.41,2.41,0,0,1-1.48.54,2.12,2.12,0,0,1-.44,0,2.59,2.59,0,0,1-1.71-1c-.73-.91-1.61-2-2.64-3.23-.14-.18-.29-.16-.44.06A16.46,16.46,0,0,1,297,50.25a2.78,2.78,0,0,1-2,.88h-.28A3.83,3.83,0,0,1,292.37,50c-.41-.37-.79-.7-1.16-1a.26.26,0,0,0-.38,0,1.64,1.64,0,0,1-1.32.49,1.71,1.71,0,0,1-1.27-.65c-.58-.77-1.24-1.57-2-2.41-.18-.18-.34-.16-.49.06a14.85,14.85,0,0,1-2.64,3.77,2.83,2.83,0,0,1-2,.87h-.27a3.77,3.77,0,0,1-2.36-1.09,17.38,17.38,0,0,0-1.38-1.15c-.22-.18-.37-.13-.44.17a4.64,4.64,0,0,1-.6,1.2,4.4,4.4,0,0,1-3.25,1.91,13,13,0,0,1-2.2.22h0a2.62,2.62,0,0,1-1.82-.71,3.45,3.45,0,0,1-1.1-1.86,1.73,1.73,0,0,1,.31-1.53,1.64,1.64,0,0,1,1.4-.71H270a1.67,1.67,0,0,0,1.43-.66c.33-.51.61-2.15.83-4.92a.17.17,0,0,0-.06-.11.08.08,0,0,0-.11,0,1.27,1.27,0,0,1-1-.11,1.17,1.17,0,0,1-.61-.82,38.9,38.9,0,0,0-1.54-4.65,1.08,1.08,0,0,1,0-.93,1,1,0,0,1,.72-.6,1.26,1.26,0,0,1,1,0,1.48,1.48,0,0,1,.72.74q.49,1,.93,2.19s0,.05.06.05a.21.21,0,0,0,.11-.05c0-1.13.09-2.77.16-4.93a.34.34,0,0,0-.38-.38H261a3.09,3.09,0,0,1-2.31-1,3.12,3.12,0,0,1-.93-2.26v-24A3.18,3.18,0,0,1,261,2h13.8a2.56,2.56,0,0,1,1.82.74,2.44,2.44,0,0,1,.77,1.83,2.54,2.54,0,0,1-.77,1.86,2.51,2.51,0,0,1-1.82.77h-2.86a.34.34,0,0,0-.38.38v2.68a.33.33,0,0,0,.38.38h2a2.41,2.41,0,0,1,1.76.71,2.43,2.43,0,0,1,0,3.45,2.41,2.41,0,0,1-1.76.71h-2c-.25,0-.38.15-.38.44v2.57c0,.29.13.44.38.44h2.15a2.39,2.39,0,0,1,1.76.71,2.44,2.44,0,0,1,0,3.44,2.43,2.43,0,0,1-1.76.71h-2.15a.34.34,0,0,0-.38.38V27a.34.34,0,0,0,.38.39h2.81a3.06,3.06,0,0,1,2.31,1,3.11,3.11,0,0,1,.88,2.19q0,4.16-.44,11.75a45.15,45.15,0,0,1-.61,5.86.1.1,0,0,0,0,.16.16.16,0,0,0,.19,0Q281.76,45.05,283,38a3.32,3.32,0,0,1,1.1-1.91,2.85,2.85,0,0,1,1.82-.66h.22a2.42,2.42,0,0,1,1.81.93,2.17,2.17,0,0,1,.61,1.53,1.67,1.67,0,0,1-.06.44c-.14.84-.31,1.62-.49,2.35a.85.85,0,0,0,.22.71,45.07,45.07,0,0,1,4.45,5,.31.31,0,0,0,.55,0A16.44,16.44,0,0,0,296.88,37.9Zm-35.19-.39a1.43,1.43,0,0,1,.3-1.06,1.29,1.29,0,0,1,1-.52,1.46,1.46,0,0,1,1.07.3,1.26,1.26,0,0,1,.52,1,54,54,0,0,1,.39,6.68,4.74,4.74,0,0,1-.06.71,1.55,1.55,0,0,1-.44,1.12,1.66,1.66,0,0,1-1.1.52,1.09,1.09,0,0,1-1-.3,1.36,1.36,0,0,1-.41-1c0-.61,0-1.25,0-1.91C262,41.19,261.87,39.37,261.69,37.51ZM266.41,7.6a.33.33,0,0,0-.38-.38h-2.7a.34.34,0,0,0-.38.38v2.68a.33.33,0,0,0,.38.38H266a.33.33,0,0,0,.38-.38ZM266,19c.26,0,.38-.15.38-.44V16c0-.29-.12-.44-.38-.44h-2.7c-.25,0-.38.15-.38.44v2.57c0,.29.13.44.38.44Zm-2.7,4.86a.34.34,0,0,0-.38.38V27a.34.34,0,0,0,.38.39H266c.26,0,.38-.13.38-.39V24.22a.33.33,0,0,0-.38-.38Zm2,13.24a1.37,1.37,0,0,1,.2-1,1.26,1.26,0,0,1,.85-.61,1.46,1.46,0,0,1,1.1.22,1.32,1.32,0,0,1,.6.88,51.67,51.67,0,0,1,1.21,6.34,1.39,1.39,0,0,1-.33,1.07,1.57,1.57,0,0,1-1,.57,1.16,1.16,0,0,1-1-.24,1.28,1.28,0,0,1-.49-.91A38.2,38.2,0,0,0,265.31,37.08Zm23.26-19a3.17,3.17,0,0,1-2.31-.93,3.11,3.11,0,0,1-.93-2.3s-.05-.07-.14-.11-.15,0-.19,0c-.88.77-1.8,1.5-2.75,2.19a2.47,2.47,0,0,1-1.37.44,2.27,2.27,0,0,1-.83-.16,3.06,3.06,0,0,1-1.76-1.48,3.18,3.18,0,0,1-.44-1.59,2.85,2.85,0,0,1,.11-.76,3.06,3.06,0,0,1,1.32-2,32.16,32.16,0,0,0,8.52-8.86A5.18,5.18,0,0,1,292.26.05a5.55,5.55,0,0,1,4.67,2.47,34.34,34.34,0,0,0,9,8.53A3.24,3.24,0,0,1,307.38,13a3.57,3.57,0,0,1,.11.82,2.86,2.86,0,0,1-.44,1.53.62.62,0,0,1-.17.27A3,3,0,0,1,305,17.12a2.87,2.87,0,0,1-.77.11,2.52,2.52,0,0,1-1.54-.55c-.77-.51-1.54-1.08-2.31-1.7a.1.1,0,0,0-.16-.05.17.17,0,0,0-.11.16,2.86,2.86,0,0,1-.91,2.14,3,3,0,0,1-2.17.87Zm-5.72,16.13a3.17,3.17,0,0,1-2.28-.93,3.06,3.06,0,0,1-1-2.29V23.84a3.1,3.1,0,0,1,1-2.3,3.2,3.2,0,0,1,2.28-.92h5.61a3.18,3.18,0,0,1,3.25,3.22V31a3.19,3.19,0,0,1-3.25,3.22Zm1.54-9.51c-.25,0-.38.14-.38.43v4.49c0,.29.13.44.38.44h2.37c.25,0,.38-.15.38-.44V25.15c0-.29-.13-.43-.38-.43ZM286.92,13a.21.21,0,0,0,0,.19.18.18,0,0,0,.17.08h11.05c.07,0,.12,0,.14-.08a.23.23,0,0,0,0-.19,33.45,33.45,0,0,1-5.55-6.67.57.57,0,0,0-.25-.14c-.09,0-.16,0-.19.14A32,32,0,0,1,286.92,13ZM297,34.23a3.19,3.19,0,0,1-2.29-.93,3.06,3.06,0,0,1-1-2.29V23.84a3.1,3.1,0,0,1,1-2.3,3.22,3.22,0,0,1,2.29-.92h6a3.17,3.17,0,0,1,2.31.92,3.12,3.12,0,0,1,.94,2.3V31a3.08,3.08,0,0,1-.94,2.29,3.14,3.14,0,0,1-2.31.93Zm1.48-9.51c-.26,0-.39.14-.39.43v4.49c0,.29.13.44.39.44h2.75c.26,0,.38-.15.38-.44V25.15c0-.29-.12-.43-.38-.43Z"/><path class="cls-2" d="M362.2,7.63l.93.9V9.84a3,3,0,0,1-.93,2.22,3.16,3.16,0,0,1-2.26.9H333.38a.58.58,0,0,0-.55.38c-.58,1.31-1.21,2.55-1.87,3.72a.15.15,0,0,0,0,.22.24.24,0,0,0,.19.11h22.43a3.15,3.15,0,0,1,2.29,1,3.08,3.08,0,0,1,1,2.27V45.06a9.91,9.91,0,0,1-.63,4,4.45,4.45,0,0,1-2.29,2.16c-1.35.66-3.61,1-6.76,1.1h-.05a3.82,3.82,0,0,1-2.42-.88,4.25,4.25,0,0,1-1.49-2.24c0-.11-.07-.22-.11-.33a2.27,2.27,0,0,1,.28-2A2,2,0,0,1,345,46h4a1.46,1.46,0,0,0,1-.25,1.1,1.1,0,0,0,.27-.85v-3c0-.29-.12-.44-.38-.44H330.36c-.26,0-.38.15-.38.44V49a3.07,3.07,0,0,1-1,2.29,3.17,3.17,0,0,1-2.28.93h-.16a3.14,3.14,0,0,1-2.31-.93,3.08,3.08,0,0,1-.94-2.29V28.27a.13.13,0,0,0-.11-.14.19.19,0,0,0-.16,0,40.16,40.16,0,0,1-4.57,4.32,3,3,0,0,1-1.87.66h-.49a3.82,3.82,0,0,1-2.25-1.26.82.82,0,0,1-.17-.22,2.8,2.8,0,0,1-.71-1.91v-.28a2.9,2.9,0,0,1,1.09-2.07A45,45,0,0,0,325.3,13.34a.25.25,0,0,0,0-.24.22.22,0,0,0-.22-.14h-8.74a3.16,3.16,0,0,1-2.26-.9,3,3,0,0,1-.93-2.22,3,3,0,0,1,.93-2.21,3.16,3.16,0,0,1,2.26-.9h11.55a.6.6,0,0,0,.6-.39c.4-1.13.79-2.24,1.16-3.33a3.39,3.39,0,0,1,1.54-2,3.24,3.24,0,0,1,1.7-.49,2.56,2.56,0,0,1,.77.11l.6.11a3,3,0,0,1,1.93,1.42,2.91,2.91,0,0,1,.38,1.42,2.93,2.93,0,0,1-.16.93c-.22.65-.42,1.24-.61,1.75a.39.39,0,0,0,0,.3c.06.09.12.14.19.14h23.92A3.16,3.16,0,0,1,362.2,7.63ZM349.88,26.79a.33.33,0,0,0,.38-.38V23.62a.33.33,0,0,0-.38-.38H330.36a.33.33,0,0,0-.38.38v2.79a.33.33,0,0,0,.38.38ZM330,35.6a.33.33,0,0,0,.38.38h19.52a.33.33,0,0,0,.38-.38V32.75a.33.33,0,0,0-.38-.38H330.36a.33.33,0,0,0-.38.38Z"/><path class="cls-2" d="M369.46,29.75V25.37a2,2,0,0,1,.63-1.53,2.2,2.2,0,0,1,3,0,2,2,0,0,1,.63,1.53V30c0,2.91-.11,5.66-.33,8.23a39.29,39.29,0,0,1-1.26,7.19,1.33,1.33,0,0,1-1,1,1.67,1.67,0,0,1-1.46-.3,3.51,3.51,0,0,1-1.15-1.59,3.39,3.39,0,0,1-.22-1.2,5,5,0,0,1,.06-.77A59.29,59.29,0,0,0,369.46,29.75Zm2.14-9.41a2.79,2.79,0,0,1-2.06-.85,2.75,2.75,0,0,1-.85-2,2.79,2.79,0,0,1,.85-2.05,2.82,2.82,0,0,1,2.06-.84h13.75a2.84,2.84,0,0,1,2.06.84,2.79,2.79,0,0,1,.85,2.05,2.75,2.75,0,0,1-.85,2,2.81,2.81,0,0,1-2.06.85h-3.41c-.26,0-.39.15-.39.44V49.49a2.59,2.59,0,0,1-.82,1.94,2.81,2.81,0,0,1-3.91,0,2.59,2.59,0,0,1-.82-1.94V20.78c0-.29-.13-.44-.39-.44ZM384.36,3.5a2.72,2.72,0,0,1,2,.85,2.74,2.74,0,0,1,.85,2,2.74,2.74,0,0,1-.85,2,2.72,2.72,0,0,1-2,.85H372.92a2.72,2.72,0,0,1-2-.85,2.79,2.79,0,0,1-.82-2,2.79,2.79,0,0,1,.82-2,2.72,2.72,0,0,1,2-.85Zm3.13,39.84a2.07,2.07,0,0,1-3,0,2.11,2.11,0,0,1-.6-1.51V25.26a2,2,0,0,1,.6-1.47,2.14,2.14,0,0,1,3,0,2,2,0,0,1,.6,1.47V41.83A2.11,2.11,0,0,1,387.49,43.34Zm25.18,2.59a.28.28,0,0,0,0,.25.23.23,0,0,0,.19.14h5.34A2.39,2.39,0,0,1,420,47a2.34,2.34,0,0,1,.71,1.72A2.46,2.46,0,0,1,420,50.5a2.38,2.38,0,0,1-1.76.74H391a2.44,2.44,0,0,1-1.78-.74,2.38,2.38,0,0,1-.75-1.75,2.27,2.27,0,0,1,.75-1.72,2.45,2.45,0,0,1,1.78-.71h5.45a.33.33,0,0,0,.22-.14.3.3,0,0,0,.05-.3,19,19,0,0,0-.66-2,3,3,0,0,1-.22-1.09,2.84,2.84,0,0,1,.28-1.21,2.61,2.61,0,0,1,1.7-1.47h.11a.05.05,0,0,0,.06-.06s0,0-.06,0h-2.53a3.28,3.28,0,0,1-3.24-3.23V32.59a3.28,3.28,0,0,1,3.24-3.23h18.81a3.28,3.28,0,0,1,3.24,3.23V36.8A3.28,3.28,0,0,1,414.16,40H411.9a0,0,0,0,0,0,0s0,.06,0,.06l.22,0a2.47,2.47,0,0,1,1.71,1.48,2.62,2.62,0,0,1,.22,1,2.77,2.77,0,0,1-.28,1.2C413.37,44.68,413,45.35,412.67,45.93Zm4.73-23.46a2.52,2.52,0,1,1,0,5H392.11a2.52,2.52,0,1,1,0-5ZM415.81,3.55a3.11,3.11,0,0,1,2.28,1,3.11,3.11,0,0,1,1,2.27V17.44a3.08,3.08,0,0,1-1,2.27,3.11,3.11,0,0,1-2.28,1H393.65a3.11,3.11,0,0,1-2.28-1,3,3,0,0,1-1-2.27V6.78a3.08,3.08,0,0,1,1-2.27,3.11,3.11,0,0,1,2.28-1h3.79c.26,0,.39-.12.39-.38V2.46a2.32,2.32,0,0,1,.74-1.75,2.54,2.54,0,0,1,3.52,0,2.36,2.36,0,0,1,.74,1.75v.71c0,.26.13.38.39.38h2.53a.33.33,0,0,0,.38-.38V2.46a2.36,2.36,0,0,1,.74-1.75,2.54,2.54,0,0,1,3.52,0,2.32,2.32,0,0,1,.74,1.75v.71c0,.26.15.38.44.38ZM396.12,7.66a.33.33,0,0,0-.38.38V9.79a.34.34,0,0,0,.38.38h2.31c.29,0,.44-.13.44-.38V8c0-.26-.15-.38-.44-.38Zm0,6.34a.34.34,0,0,0-.38.38v1.75c0,.29.13.44.38.44h2.31a.39.39,0,0,0,.44-.44V14.38c0-.25-.15-.38-.44-.38Zm2,19.3c-.29,0-.44.13-.44.38v2c0,.25.15.38.44.38h13.14a.34.34,0,0,0,.39-.38v-2a.34.34,0,0,0-.39-.38Zm11,7.11a.28.28,0,0,0,0-.27.27.27,0,0,0-.25-.11h-8.35c-.11,0-.19,0-.22.11a.22.22,0,0,0,0,.22,21.6,21.6,0,0,1,1.81,4.15,1.56,1.56,0,0,1,0,.74,1.34,1.34,0,0,1-.36.63,1.49,1.49,0,0,1-.6.38v.06h7v-.06a1.21,1.21,0,0,1-.66-.6.9.9,0,0,1,0-.87A41.11,41.11,0,0,0,409.1,40.41ZM402.78,9.79a.33.33,0,0,0,.38.38h2.59a.34.34,0,0,0,.38-.38V8a.33.33,0,0,0-.38-.38h-2.59a.33.33,0,0,0-.38.38Zm3.35,4.59a.34.34,0,0,0-.38-.38h-2.59a.33.33,0,0,0-.38.38v1.75c0,.29.12.44.38.44h2.59c.25,0,.38-.15.38-.44Zm6.93-4.21a.34.34,0,0,0,.38-.38V8a.33.33,0,0,0-.38-.38h-2.59a.33.33,0,0,0-.38.38V9.79a.34.34,0,0,0,.38.38Zm0,6.4c.25,0,.38-.15.38-.44V14.38a.34.34,0,0,0-.38-.38h-2.59a.34.34,0,0,0-.38.38v1.75c0,.29.13.44.38.44Z"/></g></g></svg>