<svg xmlns="http://www.w3.org/2000/svg" viewBox="0 0 93.66 97"><defs><style>.cls-1{fill:#e8c26e;}.cls-2{fill:#c24830;}.cls-3{fill:#9a632f;}.cls-4{fill:#be8244;}.cls-5{fill:#9dcce6;}.cls-6{fill:#e8b954;}</style></defs><title>
icon_lottery</title><g id="圖層_2" data-name="圖層 2"><g id="圖層_1-2" data-name="圖層 1"><path class="cls-1" d="M-244.74-43.86c0,.55,0,1.12,0,1.67a33.42,33.42,0,0,1-31.73,31.73c-.55,0-1.12.05-1.67.05s-1.12,0-1.67-.05a33.42,33.42,0,0,1-31.73-31.73c0-.55-.05-1.12-.05-1.67s0-1.12.05-1.67a33.45,33.45,0,0,1,35.07-31.73,33.44,33.44,0,0,1,31.73,31.73c0,.55,0,1.12,0,1.67Z" transform="translate(320 84)"/><path class="cls-2" d="M-284.88-84h13.38l-6.69,13.38Z" transform="translate(320 84)"/><path class="cls-3" d="M-306.62-.38h56.86V13h-56.86Z" transform="translate(320 84)"/><path class="cls-4" d="M-310-10.41h63.56v10H-310Z" transform="translate(320 84)"/><path class="cls-5" d="M-239.72-3.72h-6.69V-7.07h6.69a5,5,0,0,0,5-5v-15h3.35v15.05A8.38,8.38,0,0,1-239.72-3.72Z" transform="translate(320 84)"/><path class="cls-6" d="M-306.62,4.64h16.72V8h-16.72Z" transform="translate(320 84)"/><path class="cls-6" d="M-258.12,4.64h8.36V8h-8.36Z" transform="translate(320 84)"/><path class="cls-5" d="M-234.71-65.6h3.35v3.34h-3.35Z" transform="translate(320 84)"/><path class="cls-5" d="M-234.71-58.91h3.35v3.34h-3.35Z" transform="translate(320 84)"/><path class="cls-5" d="M-238-62.26h3.34v3.35H-238Z" transform="translate(320 84)"/><path class="cls-5" d="M-231.36-62.26H-228v3.35h-3.34Z" transform="translate(320 84)"/><path class="cls-5" d="M-316.66-25.47h3.35v3.35h-3.35Z" transform="translate(320 84)"/><path class="cls-5" d="M-316.66-18.78h3.35v3.35h-3.35Z" transform="translate(320 84)"/><path class="cls-5" d="M-320-22.12h3.34v3.34H-320Z" transform="translate(320 84)"/><path class="cls-5" d="M-313.31-22.12H-310v3.34h-3.34Z" transform="translate(320 84)"/><path class="cls-5" d="M-248.09-80.66h3.35v3.35h-3.35Z" transform="translate(320 84)"/><path class="cls-5" d="M-248.09-74h3.35v3.35h-3.35Z" transform="translate(320 84)"/><path class="cls-5" d="M-251.43-77.31h3.34V-74h-3.34Z" transform="translate(320 84)"/><path class="cls-5" d="M-244.74-77.31h3.34V-74h-3.34Z" transform="translate(320 84)"/><circle class="cls-2" cx="41.81" cy="40.14" r="8.36"/><circle class="cls-2" cx="86.97" cy="51.84" r="6.69"/></g></g></svg>