<svg xmlns="http://www.w3.org/2000/svg" xmlns:xlink="http://www.w3.org/1999/xlink" viewBox="0 0 395.1 342.97"><defs><style>.cls-1{isolation:isolate;}.cls-2{fill:#fcfcfc;opacity:0.08;mix-blend-mode:screen;}.cls-3{opacity:0.46;}.cls-4{fill:#89fce5;}.cls-5{opacity:0.73;}.cls-6{fill:url(#鍊踑臇蜸馯鳺艜_28);}.cls-7{fill:#fff;}.cls-8{fill:#c5d5dd;}</style><linearGradient id="鍊踑臇蜸馯鳺艜_28" x1="75.22" y1="203.44" x2="387.28" y2="203.44" gradientUnits="userSpaceOnUse"><stop offset="0" stop-color="#febbd7"/><stop offset="1" stop-color="#f8cbcd"/></linearGradient></defs><title>infographic</title><g class="cls-1"><g id="圖層_2" data-name="圖層 2"><g id="圖層_1-2" data-name="圖層 1"><polygon class="cls-2" points="0 114.26 393.56 342.97 395.1 342.08 1.55 113.37 0 114.26"/><g class="cls-3"><path class="cls-4" d="M290.38,99.11c.54.31,1.08.64,1.63,1,12.14,8,20.16,24.54,28.65,42,8.79,18.09,17.87,36.79,32.07,46.43q2.29,1.56,4.43,2.79c20.59,11.88,29.32,1.63,29.4,1.52l1.85,2.41c-.4.49-9.48,11.15-31.14-1.35-1.51-.88-3.09-1.87-4.74-3-15.14-10.28-24.52-29.59-33.59-48.26-8.19-16.85-15.92-32.77-27.1-40.17-.5-.33-1-.63-1.48-.92-13.32-7.69-22.77,2.17-33.67,13.51-12.67,13.2-27,28.16-51,15.91q-2.74-1.41-5.31-2.89c-20.69-11.94-33.3-27.69-45.54-43-11.4-14.25-23.2-29-41.68-40.67q-.87-.56-1.74-1.05c-19.11-11-35.16-3.2-35.32-3.11l-1.49-2.69c.69-.35,16.82-8.26,36.78,3.27.63.36,1.25.74,1.88,1.14,19,12,31.05,27.05,42.68,41.58,12.49,15.6,24.34,30.4,44.3,41.93,1.71,1,3.48,2,5.32,2.89,22.92,11.71,37-2.92,49.34-15.82C265.7,101.39,275.92,90.76,290.38,99.11Z"/></g><g class="cls-5"><path class="cls-6" d="M231.55,106.42c38,21.93,28.58,101.06,60.61,119.55,33.43,19.3,29.12-47.67,60.49-30,31.46,18.15,33.79,120,34.63,125.16L75.22,141c.45-3.47,10.68-59.34,34.23-54.95,21.26,4,30.32,64.74,60.34,84C193.17,185,195.36,85.52,231.55,106.42Z"/></g><path class="cls-7" d="M292,92.49a13.59,13.59,0,0,1,6.16,10.67c0,3.92-2.79,5.5-6.2,3.53A13.55,13.55,0,0,1,285.78,96C285.79,92.1,288.56,90.51,292,92.49Z"/><polygon class="cls-7" points="109.82 162.31 108.91 161.86 108.91 0 109.82 0.45 109.82 162.31"/><polygon class="cls-7" points="170.67 197.06 169.77 196.61 169.77 34.75 170.67 35.2 170.67 197.06"/><polygon class="cls-7" points="224.61 228.17 223.71 227.72 223.71 65.87 224.61 66.31 224.61 228.17"/><polygon class="cls-7" points="291.94 266.91 291.04 266.46 291.04 104.6 291.94 105.05 291.94 266.91"/><polygon class="cls-7" points="352.79 302.73 351.89 302.28 351.89 140.42 352.79 140.87 352.79 302.73"/><polygon class="cls-8" points="112.69 171.98 105.18 167.64 105.18 165.6 112.69 169.94 112.69 171.98"/></g></g></g></svg>