<svg xmlns="http://www.w3.org/2000/svg" xmlns:xlink="http://www.w3.org/1999/xlink" viewBox="0 0 415.76 457.35"><defs><style>.cls-1{fill:#4d4d4d;}.cls-2{fill:#ed4432;}.cls-3{fill:#efb631;}.cls-4{fill:#9fea34;}.cls-5{fill:#e4f2fd;}.cls-6{fill:url(#鍊踑臇蜸馯鳺艜_9);}.cls-7{fill:#85a8ff;}.cls-8{fill:#c5d5dd;}.cls-9{fill:#626bc1;}.cls-10{fill:#f86174;}</style><linearGradient id="鍊踑臇蜸馯鳺艜_9" x1="11.81" y1="297.76" x2="398.81" y2="297.76" gradientUnits="userSpaceOnUse"><stop offset="0" stop-color="#5aa1e4"/><stop offset="1" stop-color="#72d4c7"/></linearGradient></defs><title>kk</title><g id="圖層_2" data-name="圖層 2"><g id="圖層_1-2" data-name="圖層 1"><rect class="cls-1" x="207.38" y="-109.64" width="1" height="479.5" transform="translate(-8.74 245.09) rotate(-60)"/><ellipse class="cls-2" cx="23.8" cy="7.53" rx="4.91" ry="8.67" transform="translate(0.25 15.82) rotate(-36.95)"/><ellipse class="cls-3" cx="52.07" cy="23.85" rx="4.91" ry="8.67" transform="translate(-3.88 36.09) rotate(-36.95)"/><ellipse class="cls-4" cx="78.88" cy="39.33" rx="4.91" ry="8.67" transform="translate(-7.8 55.32) rotate(-36.95)"/><polygon class="cls-5" points="408.81 457.35 7.81 228 7.81 23.46 408.81 252.81 408.81 457.35"/><path class="cls-6" d="M11.81,227l387,223.35V342.78s-74.65-2.16-94.54-13.64c-23.77-13.73-25.65-55.75-40.52-64.33-14.48-8.36-18.94,24.58-40.51,12.12-21.39-12.35-17.16-65.66-40.52-79.14-24.19-14-18.06,65-40.52,52.07C123.33,239,120.54,196,102,185.24,84.54,175.17,83.51,215,58.31,200.41c-8.61-5-41.65-37.52-46.5-55.23Z"/><polygon class="cls-7" points="114.5 106.72 49.1 68.96 49.1 62.45 114.5 100.21 114.5 106.72"/><polygon class="cls-8" points="142.2 138.09 49.1 84.34 49.1 80.81 142.2 134.57 142.2 138.09"/><polygon class="cls-8" points="142.2 145.82 49.1 92.06 49.1 88.54 142.2 142.29 142.2 145.82"/><polygon class="cls-8" points="124.45 143.29 49.1 99.79 49.1 96.26 124.45 139.77 124.45 143.29"/><polygon class="cls-8" points="189.64 182.69 176.63 175.18 176.63 171.66 189.64 179.17 189.64 182.69"/><rect class="cls-9" x="60.66" y="127.61" width="1.01" height="128.89"/><rect class="cls-9" x="101.18" y="151" width="1.01" height="128.89"/><rect class="cls-9" x="141.7" y="174.39" width="1.01" height="128.89"/><rect class="cls-9" x="182.21" y="197.79" width="1.01" height="128.89"/><rect class="cls-9" x="222.73" y="221.18" width="1.01" height="128.89"/><rect class="cls-9" x="263.25" y="244.57" width="1.01" height="128.89"/><rect class="cls-9" x="303.76" y="267.96" width="1.01" height="128.89"/><path class="cls-10" d="M177.4,194.71c0-3.39,2.38-4.76,5.32-3.07a11.76,11.76,0,0,1,5.32,9.22c0,3.39-2.38,4.77-5.32,3.07A11.76,11.76,0,0,1,177.4,194.71Z"/></g></g></svg>