<svg xmlns="http://www.w3.org/2000/svg" xmlns:xlink="http://www.w3.org/1999/xlink" viewBox="0 0 55.91 101.49"><defs><style>.cls-1{fill:none;}.cls-2{fill:#e6e6e6;}.cls-3{fill:#f2f2f2;}.cls-4{fill:#176a54;}.cls-5{clip-path:url(#clip-path);}.cls-6{fill:#fff;}.cls-7{fill:#1da259;}</style><clipPath id="clip-path"><ellipse class="cls-1" cx="33.05" cy="65.62" rx="14.12" ry="14.22" transform="translate(-10.5 6.45) rotate(-9.62)"/></clipPath></defs><title>latte</title><g id="圖層_2" data-name="圖層 2"><g id="圖層_1-2" data-name="圖層 1"><path class="cls-2" d="M3.23,39.23,7.5,51l9.12,34.16,1.14.63,2.35,10.19.78.91.58,3.43s20.5,5.16,34.3-5.82l-.51-3L54.72,79.7l.67-1-2.15-36,.23-12.08"/><ellipse class="cls-3" cx="27.96" cy="33.9" rx="28.34" ry="3.38" transform="translate(-5.27 5.15) rotate(-9.62)"/><ellipse class="cls-4" cx="33.03" cy="65.63" rx="14.12" ry="14.22" transform="translate(-10.5 6.44) rotate(-9.62)"/><g class="cls-5"><path class="cls-6" d="M30.17,55a7.41,7.41,0,0,1-2-.91l2.42-.41L30.91,52l1,1.28,2.26-.17L32.8,54.56l.91,1.71s2.15-2,3.16-2.19a25.83,25.83,0,0,0-.8,2.62c0,.21,1.61-1.51,2.65-1.48l-1.14,3.1s-6.69-1.57-10.89,1.84a13.56,13.56,0,0,0-2.06-2.35s2.19-.57,2.73.16l-1.51-2.13s3.2.5,3.71,1Z"/><ellipse class="cls-6" cx="32.45" cy="62.3" rx="3.27" ry="3.68" transform="matrix(0.99, -0.17, 0.17, 0.99, -9.96, 6.3)"/><path class="cls-6" d="M35.73,59.05s2.19,1.91,1.52,4.1-1,3.7.42,4.91,1.86,2.38.42,4.91,2.19,3.15,1.76,5.51l1.35-.64s-.16-1.53-1.07-2-2.23-2.11-.55-4.47S38.39,68,38,67.06a7.57,7.57,0,0,1,.26-4.61C38.88,61.11,35.67,58.12,35.73,59.05Z"/><path class="cls-6" d="M37.24,59.41a3.4,3.4,0,0,1,1.49,2.66c.11,1.85-1,3.7.45,5.11s2.29,1.27,1.36,4.33,1.66,4.91,1.6,5.75l.73-.54s-3.08-2.9-1.61-5.22.5-3.2-.18-3.5-2.49-2.49-1.59-4.51S37.66,57.58,37.24,59.41Z"/><path class="cls-6" d="M28.22,60.32s-1.44,2.53-.09,4.37,2.19,3.16,1.22,4.78-1,2.86,1.23,4.77-1,3.7.15,5.79l-1.48-.17s-.36-1.49.35-2.23,1.4-2.73-1-4.41,0-3.53.06-4.58a7.55,7.55,0,0,0-1.77-4.26C25.92,63.3,28,59.43,28.22,60.32Z"/><path class="cls-6" d="M26.91,61.16a3.38,3.38,0,0,0-.53,3c.51,1.78,2.19,3.16,1.26,5s-1.75,2,.14,4.54,0,5.18.39,5.95l-.87-.27s1.95-3.75-.2-5.46-1.53-2.86-1-3.36,1.54-3.17,0-4.78S25.91,59.57,26.91,61.16Z"/><path class="cls-6" d="M31.59,67A8.91,8.91,0,0,0,35,66.43s.69,1.62,1.36,1.95,1.37,1.94.32,4.29.1,3,.37,3.42a9.47,9.47,0,0,1,1.18,3.29l-5.65,1a5,5,0,0,1,.55-3.46c1-1.48-.88-4-1.59-4.52a2,2,0,0,1-.84-2.47C31.15,68.72,31.68,68.19,31.59,67Z"/></g><path class="cls-3" d="M0,38.53l1.12,2.93s31-.7,53.87-9.14l.9-3.26"/><path class="cls-7" d="M34.8.69,32.94,33.32l2.7-.46L37.49.23S36.44-.52,34.8.69Z"/><path class="cls-3" d="M8.05,44.41l0-1c.24,0,24.57-.71,41.89-7.09l.35.93C32.77,43.7,8.29,44.41,8.05,44.41Z"/><path class="cls-3" d="M8.62,47.82l0-1c.24,0,24.56-.71,41.89-7.09l.34.93C33.35,47.11,8.87,47.82,8.62,47.82Z"/></g></g></svg>