<svg xmlns="http://www.w3.org/2000/svg" viewBox="0 0 229.24 273.07"><defs><style>.cls-1{fill:#ffd4ce;}.cls-2{fill:#996442;}.cls-3{fill:#c57a0d;}.cls-4{fill:#f1bd9a;}.cls-10,.cls-5{fill:#fff;}.cls-6{fill:#f9d7b2;}.cls-7{fill:#b78f7d;}.cls-8{fill:#cea882;}.cls-9{fill:#03355a;}.cls-10{opacity:0.67;}</style></defs><title>man</title><g id="圖層_2" data-name="圖層 2"><g id="圖層_1-2" data-name="圖層 1"><ellipse class="cls-1" cx="108.43" cy="69.35" rx="37.52" ry="40.89"/><path class="cls-2" d="M149.59,55.09c2-7.86,7.86-23.58-11.79-29.47S112.26-7.78,86.72,6c0,0-19.64,15.72-15.71,31.44s37.05,8,44.37,17.4c4.79,6.19,20-1.05,30.56,17.92"/><path class="cls-1" d="M194.26,175s36,55.87,35,63.25S164.92,273,164.92,273l-2-21,31.53-21.16L180.73,189Z"/><ellipse cx="101.86" cy="76.5" rx="2.28" ry="2.61"/><ellipse cx="90.55" cy="76.5" rx="2.28" ry="2.61"/><path d="M113.63,68.08s-3.2-4.71-7.26-4.71h0c-2.37,0-4.62,1.59-6.71,4.71l-.83-.56c2.28-3.42,4.82-5.15,7.54-5.15,4.6,0,7.95,4.94,8.09,5.15Z"/><polyline class="cls-3" points="161.75 250.87 164.74 273 69.88 273 73.21 250.87"/><path class="cls-1" d="M40.54,153.89,30,158.11,27.89,78a21.19,21.19,0,0,0,4.22-21.08s9.48-15.81,2.1-16.87-27.4,3.17-28.46,20S-4.79,161,3.12,180.1s51.12,2.25,51.12-3S40.54,153.89,40.54,153.89Z"/><path d="M94.48,67.21s-3.19-4.71-7.25-4.71h0c-2.36,0-4.62,1.58-6.7,4.71l-.83-.56C82,63.23,84.5,61.5,87.23,61.5c4.59,0,7.94,4.94,8.08,5.15Z"/><path class="cls-4" d="M95,87.11c-1.72-1.44-2.51-2.94-2.35-4.44.28-2.53,3.17-4.06,3.29-4.12l.46.89s-2.54,1.34-2.75,3.34c-.13,1.15.55,2.35,2,3.57Z"/><path class="cls-5" d="M99.68,90.43H88.37s3.48,9.57,7.83,7.83S99.68,90.43,99.68,90.43Z"/><path class="cls-6" d="M198.65,169.7S167.53,116,144.83,114.89s-20.91,1-46.75-1-63.87,38.91-63.87,38.91l10.72,29.7,25.42-8.47-2.26,80,97.47-.33L164,181.13l14.13,13.18Z"/><path class="cls-1" d="M111.43,100.14h3.68a8,8,0,0,1,8,8v21.51a0,0,0,0,1,0,0H103.43a0,0,0,0,1,0,0V108.14A8,8,0,0,1,111.43,100.14Z" transform="translate(226.54 229.78) rotate(-180)"/><path class="cls-7" d="M80.85,44.4c-9.49-6,.59-26.48,1-27.35l.9.44c-.11.21-10.12,20.57-1.39,26.07Z"/><path class="cls-7" d="M91.21,48.18C85.14,36,86.64,27.34,89,22.19a20.93,20.93,0,0,1,6.64-8.38l.55.84c-.15.1-15.29,10.59-4,33.09Z"/><path class="cls-7" d="M98.59,48.18c-8.52-17,15.72-35.22,16-35.41l.6.81c-.24.17-23.81,17.86-15.66,34.16Z"/><rect class="cls-8" x="106.97" y="143.88" width="1" height="72.2"/><circle class="cls-8" cx="97.72" cy="159.69" r="2.11"/><circle class="cls-8" cx="97.72" cy="174.97" r="2.11"/><path class="cls-8" d="M155.47,267.32c-.09-.35-2.25-8.64-14.08-6.17l-.2-1c12.8-2.68,15.23,6.82,15.25,6.92Z"/><polyline class="cls-8" points="162.31 248.76 162.81 251.92 72.16 251.92 72.47 248.76"/><rect class="cls-8" x="102.41" y="266.7" width="11.7" height="1" transform="translate(-171.1 338.44) rotate(-82.25)"/><path class="cls-1" d="M142.84,72.19c.73,1.78,13.21-7.23,9.13,8.3S137.6,82.6,137.6,82.6"/><path class="cls-1" d="M154.76,263.51s-7.86,1.73-5.66,9.49h16l8.62-9.49Z"/><rect class="cls-9" x="22.47" y="39.43" width="6.32" height="45.39" rx="3" ry="3" transform="translate(24.48 129.32) rotate(-156.59)"/><path class="cls-1" d="M22.93,60,15.6,74.06S30.82,69.53,22.93,60Z"/><circle class="cls-10" cx="41" cy="22.97" r="19.69"/><path class="cls-9" d="M39.6,45.9a23,23,0,1,1,1.41,0C40.54,45.94,40.07,45.93,39.6,45.9ZM30.12,10.68A16.4,16.4,0,1,0,42,6.59l-1,0A16.29,16.29,0,0,0,30.12,10.68Z"/><path class="cls-1" d="M172.24,248.86s-19,2.11-17.92,12.65,20,1.06,20,1.06Z"/><path class="cls-8" d="M112.45,133.44c-4.27,0-8.1-.67-10.46-2.75a7.35,7.35,0,0,1-2.4-5.78v-9.49h1v9.49a6.32,6.32,0,0,0,2.06,5c3.63,3.21,11.37,2.73,18.46,1.85a5.13,5.13,0,0,0,3.69-2.17c3-4.22,1.17-13,1.16-13l1-.21c.08.37,1.94,9.25-1.31,13.83a6.1,6.1,0,0,1-4.38,2.58A71.42,71.42,0,0,1,112.45,133.44Z"/></g></g></svg>