<svg xmlns="http://www.w3.org/2000/svg" viewBox="0 0 55 55"><defs><style>.cls-1{fill:#ffdbcd;}.cls-2{fill:#c5013f;}</style></defs><title>next</title><g id="圖層_2" data-name="圖層 2"><g id="圖層_1-2" data-name="圖層 1"><circle class="cls-1" cx="27.5" cy="27.5" r="27.5"/><path class="cls-2" d="M20.29,36.72a1.41,1.41,0,0,0,0,2l.85.85a1.42,1.42,0,0,0,1,.42,1.4,1.4,0,0,0,1-.42L34.72,28a1.41,1.41,0,0,0,0-2L23.14,14.42a1.4,1.4,0,0,0-1-.42,1.42,1.42,0,0,0-1,.42l-.85.85a1.4,1.4,0,0,0-.42,1,1.42,1.42,0,0,0,.42,1L30,27Z"/></g></g></svg>