<svg xmlns="http://www.w3.org/2000/svg" viewBox="0 0 19.95 19"><defs><style>.cls-1{fill:#fc8c29;}.cls-2{fill:#4c241d;}.cls-3{fill:#fff;}.cls-4{fill:#ffce56;}.cls-5{fill:#ffec95;}</style></defs><title>notification</title><g id="圖層_2" data-name="圖層 2"><g id="圖層_1-2" data-name="圖層 1"><path class="cls-1" d="M12.55,16.79a1.87,1.87,0,1,1-1.87-1.87A1.87,1.87,0,0,1,12.55,16.79Z"/><path class="cls-2" d="M10.69,19a2.21,2.21,0,1,1,2.21-2.21A2.21,2.21,0,0,1,10.69,19Zm0-3.73a1.53,1.53,0,1,0,1.53,1.53A1.53,1.53,0,0,0,10.69,15.27Z"/><path class="cls-3" d="M15.61,7.8A7.8,7.8,0,1,1,7.8,0,7.8,7.8,0,0,1,15.61,7.8Z"/><path class="cls-2" d="M11.54,4.41H9.16a.34.34,0,0,1-.34-.34V2.54a1.53,1.53,0,1,1,3.05,0V4.07A.34.34,0,0,1,11.54,4.41Zm-2-.68h1.7V2.54a.85.85,0,1,0-1.7,0Z"/><path class="cls-4" d="M17.13,14.59h-.51V9.16a6.11,6.11,0,0,0-12.21,0v5.43H3.9A1.19,1.19,0,0,0,3.9,17H17.13a1.19,1.19,0,0,0,0-2.38Z"/><path class="cls-2" d="M17.13,17.3H3.9a1.53,1.53,0,1,1,0-3.05h.17V9.16A6.45,6.45,0,1,1,17,9.16v5.09h.17a1.53,1.53,0,0,1,0,3.05ZM3.9,14.93a.85.85,0,1,0,0,1.7H17.13a.85.85,0,0,0,0-1.7h-.51a.34.34,0,0,1-.34-.34V9.16a5.77,5.77,0,0,0-11.54,0v5.43a.34.34,0,0,1-.34.34Z"/><path class="cls-3" d="M19.61,8.14a3,3,0,1,1-3-3A3,3,0,0,1,19.61,8.14Z"/><path class="cls-2" d="M16.63,11.46a3.32,3.32,0,1,1,3.32-3.32A3.33,3.33,0,0,1,16.63,11.46Zm0-6a2.64,2.64,0,1,0,2.64,2.64A2.65,2.65,0,0,0,16.63,5.5Z"/><path class="cls-2" d="M15.72,9.39a.34.34,0,0,1-.24-.58L16.29,8V6.85a.34.34,0,1,1,.68,0v1.3a.34.34,0,0,1-.1.24L16,9.29A.34.34,0,0,1,15.72,9.39Z"/><path class="cls-2" d="M11.54,14.93h-.68a.34.34,0,1,1,0-.68h.68a.34.34,0,1,1,0,.68Z"/><path class="cls-2" d="M9.61,14.93H6.11a.34.34,0,0,1,0-.68H9.61a.34.34,0,0,1,0,.68Z"/><path class="cls-5" d="M4.8,9v1.4C6,11,7.86,10.41,9.16,8.88c1.46-1.71,1.7-4,.52-5a2,2,0,0,0-.48-.32A5.46,5.46,0,0,0,4.8,9Z"/></g></g></svg>