<svg xmlns="http://www.w3.org/2000/svg" viewBox="0 0 55 55"><defs><style>.cls-1{fill:#ffdbcd;}.cls-2{fill:#c5013f;}</style></defs><title>prev</title><g id="圖層_2" data-name="圖層 2"><g id="圖層_1-2" data-name="圖層 1"><circle class="cls-1" cx="27.5" cy="27.5" r="27.5"/><path class="cls-2" d="M25,27l9.72-9.73a1.42,1.42,0,0,0,.42-1,1.4,1.4,0,0,0-.42-1l-.85-.85a1.42,1.42,0,0,0-1-.42,1.4,1.4,0,0,0-1,.42L20.28,26a1.41,1.41,0,0,0,0,2L31.85,39.58a1.4,1.4,0,0,0,1,.42,1.42,1.42,0,0,0,1-.42l.85-.85a1.41,1.41,0,0,0,0-2Z"/></g></g></svg>