<svg xmlns="http://www.w3.org/2000/svg" xmlns:xlink="http://www.w3.org/1999/xlink" viewBox="0 0 416.38 517.33"><defs><style>.cls-1{isolation:isolate;}.cls-2{fill:#4d4d4d;}.cls-3{fill:#ed4432;}.cls-4{fill:#efb631;}.cls-5{fill:#9fea34;}.cls-6,.cls-7{fill:#fcfcfc;opacity:0.08;}.cls-6{mix-blend-mode:screen;}.cls-7{mix-blend-mode:soft-light;}.cls-8{fill:#e4f2fd;}.cls-9{fill:url(#鍊踑臇蜸馯鳺艜_9);}.cls-10{fill:#85a8ff;}.cls-11{fill:#c5d5dd;}.cls-12{fill:#626bc1;}.cls-13{fill:#f86174;}</style><linearGradient id="鍊踑臇蜸馯鳺艜_9" x1="11.81" y1="346.42" x2="398.81" y2="346.42" gradientUnits="userSpaceOnUse"><stop offset="0" stop-color="#5aa1e4"/><stop offset="1" stop-color="#72d4c7"/></linearGradient></defs><title>screen</title><g class="cls-1"><g id="圖層_2" data-name="圖層 2"><g id="圖層_1-2" data-name="圖層 1"><path class="cls-2" d="M411,517.33a10.54,10.54,0,0,1-5.16-1.59L10.18,287.33C4.63,284.12.11,277,.11,271.41V36.67c0-2.55.94-4.49,2.65-5.47,2-1.18,4.91-.85,7.92.89L406.31,260.5c5.55,3.21,10.07,10.35,10.07,15.92V511.16c0,2.55-.94,4.49-2.65,5.48A5.49,5.49,0,0,1,411,517.33Zm-4.66-2.45c2.69,1.55,5.21,1.87,6.92.89,1.38-.8,2.15-2.44,2.15-4.61V276.42c0-5.25-4.3-12-9.57-15.05L10.18,33C7.49,31.4,5,31.07,3.26,32.06c-1.39.8-2.15,2.44-2.15,4.61V271.41c0,5.25,4.3,12,9.57,15Z"/><rect class="cls-2" x="207.38" y="-60.98" width="1" height="479.5" transform="translate(-50.88 269.42) rotate(-60)"/><ellipse class="cls-3" cx="23.8" cy="56.18" rx="4.91" ry="8.67" transform="translate(-28.99 25.59) rotate(-36.95)"/><ellipse class="cls-4" cx="52.07" cy="72.5" rx="4.91" ry="8.67" transform="translate(-33.13 45.86) rotate(-36.95)"/><ellipse class="cls-5" cx="78.88" cy="87.98" rx="4.91" ry="8.67" transform="translate(-37.05 65.09) rotate(-36.95)"/><path class="cls-6" d="M357.53,197.58,70.82,32.05c-3.74-2.16-6.77.13-6.77,5.12v209.9L364.3,420.42V210.52C364.3,205.53,361.27,199.74,357.53,197.58Z"/><path class="cls-7" d="M401.43,166.34,114.72.81c-3.74-2.16-6.78.14-6.78,5.12v209.9L408.2,389.19V179.28C408.2,174.3,405.17,168.5,401.43,166.34Z"/><polygon class="cls-8" points="408.81 506 7.81 276.65 7.81 72.11 408.81 301.47 408.81 506"/><path class="cls-9" d="M11.81,275.65,398.81,499V391.43s-74.65-2.16-94.54-13.64c-23.77-13.73-25.65-55.75-40.52-64.33-14.48-8.36-18.94,24.58-40.51,12.12-21.39-12.35-17.16-65.66-40.52-79.14-24.19-14-18.06,65-40.52,52.07-18.87-10.89-21.66-53.91-40.21-64.62-17.45-10.07-18.48,29.72-43.68,15.18-8.61-5-41.65-37.53-46.5-55.24Z"/><polygon class="cls-10" points="114.5 155.37 49.1 117.61 49.1 111.1 114.5 148.86 114.5 155.37"/><polygon class="cls-11" points="142.2 186.74 49.1 132.99 49.1 129.47 142.2 183.22 142.2 186.74"/><polygon class="cls-11" points="142.2 194.47 49.1 140.71 49.1 137.19 142.2 190.94 142.2 194.47"/><polygon class="cls-11" points="124.45 191.94 49.1 148.44 49.1 144.92 124.45 188.42 124.45 191.94"/><polygon class="cls-11" points="189.64 231.35 176.63 223.84 176.63 220.31 189.64 227.82 189.64 231.35"/><rect class="cls-12" x="60.66" y="176.26" width="1.01" height="128.89"/><rect class="cls-12" x="101.18" y="199.65" width="1.01" height="128.89"/><rect class="cls-12" x="141.7" y="223.05" width="1.01" height="128.89"/><rect class="cls-12" x="182.21" y="246.44" width="1.01" height="128.89"/><rect class="cls-12" x="222.73" y="269.83" width="1.01" height="128.89"/><rect class="cls-12" x="263.25" y="293.22" width="1.01" height="128.89"/><rect class="cls-12" x="303.76" y="316.62" width="1.01" height="128.89"/><path class="cls-13" d="M177.4,243.37c0-3.4,2.38-4.77,5.32-3.08a11.77,11.77,0,0,1,5.32,9.22c0,3.39-2.38,4.77-5.32,3.07A11.74,11.74,0,0,1,177.4,243.37Z"/></g></g></g></svg>