<svg xmlns="http://www.w3.org/2000/svg" viewBox="0 0 277.69 178"><defs><style>.cls-1{fill:#f2f2f2;}.cls-2{fill:#284250;}.cls-3{fill:#fff;}.cls-4{fill:#c8c2c4;}.cls-5{fill:#dad2d2;}.cls-6{fill:#009d98;}</style></defs><title>screen_1</title><g id="圖層_2" data-name="圖層 2"><g id="圖層_1-2" data-name="圖層 1"><rect class="cls-1" width="277.69" height="155" rx="15.44" ry="15.44"/><path class="cls-2" d="M15.44,0H262.26a15.44,15.44,0,0,1,15.44,15.44V127.65a0,0,0,0,1,0,0H0a0,0,0,0,1,0,0V15.44A15.44,15.44,0,0,1,15.44,0Z"/><rect class="cls-3" x="15.11" y="10.42" width="247.48" height="106.81" rx="5" ry="5"/><rect class="cls-4" x="115.85" y="155" width="46" height="19"/><rect class="cls-5" x="76.85" y="174" width="124" height="4"/><path class="cls-6" d="M87.3,54a13.3,13.3,0,0,1-2.06,4.11,44.8,44.8,0,0,1,6.1,3L89.4,63.42a45.66,45.66,0,0,0-6.21-3.29c-2.28,1.75-5.39,2.72-9.57,3.32A11.29,11.29,0,0,0,72,60.79a21.23,21.23,0,0,0,8.11-2c-1.9-.8-3.87-1.5-5.62-2.06A32.5,32.5,0,0,0,76.27,54H72V51.5H77.6a27.28,27.28,0,0,0,1.46-3.43l3.07.58c-.35.91-.77,1.88-1.24,2.85h3.89c.11-.62.18-1.3.24-2l3.18.2V47.54H75.05V50H72.38V45.11h7.85c-.24-.64-.53-1.33-.77-1.92l3-.69c.38.8.84,1.79,1.15,2.61H91V50H88.23c-.09.51-.18,1-.27,1.48h3.47V54Zm-7.67,0c-.33.58-.64,1.11-1,1.64,1.24.4,2.5.86,3.8,1.35a9.28,9.28,0,0,0,1.68-3Z"/><path class="cls-6" d="M97.6,50.31a4.53,4.53,0,0,1-2.94,3.85,5.38,5.38,0,0,0-1.3-1.7,2.81,2.81,0,0,0,1.83-2.14H93.73v-2h5.5v-1H94.66V43h2.21v2.23h2.37V42.72h2.5V53.65h-2.5V50.31Zm15.32,7.23a27.23,27.23,0,0,1-3.52,2.08,14.86,14.86,0,0,0,4.82,1.64,8.92,8.92,0,0,0-1.48,2.12c-4.6-1-7.41-3.27-9.11-7h0a14.31,14.31,0,0,1-2.79,1.77v2.43l4.42-.86a15.41,15.41,0,0,0-.18,2.12c-5.62,1.17-6.46,1.37-7,1.68a6.17,6.17,0,0,0-1-1.95,2.19,2.19,0,0,0,1.15-2v-.38a23.72,23.72,0,0,1-3.54.91,9.93,9.93,0,0,0-1.39-1.86,24.71,24.71,0,0,0,6.63-1.9H93.75v-2h8.64a9.48,9.48,0,0,0-.46-1.06l2.57-.73a16.57,16.57,0,0,1,.88,1.79h8.42v2h-2.45Zm-6.24-9.88H102.4V45.44h4.29V42.7h2.61v2.74h4.36v2.21H109.3v2.72h3.87v2.21H103V50.37h3.71Zm-.55,8.73a8.32,8.32,0,0,0,1.57,1.95,25,25,0,0,0,3.05-1.95Z"/><path class="cls-6" d="M135.93,60.06v2.56h-20V60.06h8.36V54h-6.32V51.48h6.32V46.62h-7.38V44h18v2.59h-7.76v4.86h6.79V54h-6.79v6Zm-5.48-5.73c1.19,1.13,2.94,2.74,3.8,3.76l-2,1.77c-.8-1-2.5-2.76-3.71-4Z"/><path class="cls-6" d="M157,47.39V63.33h-2.76V61.76H139V47.48h2.7V59.06h4.84V42.88h2.76V59.06h4.91V47.39Z"/><path class="cls-6" d="M161,45.09h3.63l2.79,7.65c.35,1,.66,2.1,1,3.16h.11c.35-1.06.64-2.14,1-3.16l2.72-7.65h3.63V61.45h-3V54.62c0-1.55.24-3.83.4-5.37h-.09l-1.33,3.85L169.37,60h-1.88l-2.54-6.88-1.3-3.85h-.09c.16,1.55.42,3.83.42,5.37v6.83H161Z"/><path class="cls-6" d="M177.79,45.09h3.43l2.17,8c.51,1.81.84,3.45,1.37,5.28h.11c.51-1.84.88-3.47,1.39-5.28l2.12-8h3.32l-5,16.36h-3.89Z"/><path class="cls-6" d="M193.57,45.09h5.37c3.63,0,6.41,1.26,6.41,5.13s-2.81,5.42-6.32,5.42h-2.19v5.81h-3.27Zm5.24,8c2.26,0,3.34-1,3.34-2.83s-1.19-2.54-3.45-2.54h-1.86V53Z"/><path class="cls-6" d="M38.26,86.18a21.17,21.17,0,0,1,3.29-11.43l2,.86a22.1,22.1,0,0,0,0,21.16l-2,.86A21.18,21.18,0,0,1,38.26,86.18Z"/><path class="cls-6" d="M51.66,84.77A26.24,26.24,0,0,1,50,90.54c.35.24.77.53,1.3.86,1.53.91,3.6,1,6.19,1a74.91,74.91,0,0,0,9-.58,9.6,9.6,0,0,0-.77,2.7c-1.81.11-5.73.27-8.31.27-2.94,0-4.8-.24-6.39-1.17-.93-.51-1.72-1.24-2.17-1.24s-1.3,1.5-1.86,2.76l-1.75-2.5a9.26,9.26,0,0,1,2.57-2.25,21.3,21.3,0,0,0,1.13-3.69H46c.53-1.3,1.11-3.07,1.66-4.8H45.65V79.59h5.26c-.46,1.57-1,3.34-1.57,4.86h.88l.38-.07ZM48.23,79c-.31-1-1-2.61-1.46-3.83l2.3-.75c.51,1.17,1.15,2.68,1.53,3.65Zm6.41-1h-3V76H57.3a7.06,7.06,0,0,0-.66-1l2.08-.77A12.78,12.78,0,0,1,59.91,76h5.95v2H63.22c-.29.57-.55,1.08-.79,1.55h2.94v9.4c0,1.08-.18,1.68-.91,2a6.82,6.82,0,0,1-2.94.38A8.39,8.39,0,0,0,61,89.61H57.52v.69H55.75V85.52h2V84.28H55.17V82.69h2.59V81.54H54.62v9.68H52.26V79.55h2.59a6.48,6.48,0,0,0-.58-1.46ZM60,79.55c.2-.49.4-1,.58-1.55H56.68a6.63,6.63,0,0,1,.55,1.55ZM59.91,87H57.52v1.15h2.39Zm3-5.44H59.64v1.15h2.63v1.59H59.64v1.24h2.08v3.74h.88c.27,0,.33-.09.33-.35Z"/><path class="cls-6" d="M86.72,92c0,1.42-.31,2.12-1.19,2.52a10.25,10.25,0,0,1-4.24.46,10,10,0,0,0-.84-2.52c1.24.07,2.7,0,3.09,0s.58-.13.58-.53V88.64H79.44v6.17H76.79V88.64H72.28A12.66,12.66,0,0,1,69.5,95.2a9.72,9.72,0,0,0-2.08-1.7C69.83,90.85,70,86.91,70,83.82V75.92H86.72Zm-9.93-5.81V83.44H72.63v.4c0,.71,0,1.5-.07,2.32Zm-4.16-7.74V81h4.16V78.42Zm11.48,0H79.44V81h4.67Zm0,7.74V83.44H79.44v2.72Z"/><path class="cls-6" d="M89.34,76.81h3.34l1.3,8c.24,1.72.51,3.47.75,5.22h.09c.33-1.75.69-3.51,1-5.22l1.9-8h2.79l1.9,8c.35,1.68.69,3.45,1,5.22h.11c.24-1.77.49-3.51.73-5.22l1.28-8h3.12l-3,16.36h-4.07L99.8,85.08c-.26-1.28-.51-2.54-.71-3.78H99c-.22,1.24-.44,2.5-.71,3.78l-1.79,8.09h-4Z"/><path class="cls-6" d="M110.61,77a1.94,1.94,0,0,1,3.87,0,1.94,1.94,0,0,1-3.87,0Zm.31,3.76h3.23V93.17h-3.23Z"/><path class="cls-6" d="M117.64,80.79h2.65l.22,1.64h.09a5.71,5.71,0,0,1,4-1.95c2.68,0,3.83,1.86,3.83,5v7.72H125.2V85.85c0-1.9-.53-2.59-1.75-2.59a3.56,3.56,0,0,0-2.59,1.39v8.51h-3.23Z"/><path class="cls-6" d="M131.1,87c0-4,2.52-6.52,5.2-6.52a4.26,4.26,0,0,1,3.14,1.35l-.13-1.95V75.53h3.25V93.17h-2.63l-.26-1.28h-.07a5.14,5.14,0,0,1-3.43,1.59C133.09,93.48,131.1,91,131.1,87Zm8.2,2.52V84.08a3.29,3.29,0,0,0-2.3-.93c-1.39,0-2.56,1.33-2.56,3.8s.93,3.85,2.56,3.85A2.75,2.75,0,0,0,139.3,89.52Z"/><path class="cls-6" d="M145.26,87c0-4.13,2.85-6.52,5.95-6.52s5.95,2.39,5.95,6.52-2.85,6.48-5.95,6.48S145.26,91.09,145.26,87Zm8.58,0c0-2.34-1-3.87-2.63-3.87s-2.63,1.53-2.63,3.87,1,3.83,2.63,3.83S153.84,89.32,153.84,87Z"/><path class="cls-6" d="M158.55,80.79h3.25l1.35,6.13c.24,1.19.4,2.39.62,3.6h.09c.24-1.22.46-2.43.77-3.6l1.48-6.12H169l1.55,6.13c.29,1.19.51,2.39.77,3.6h.11c.22-1.22.38-2.41.62-3.6l1.35-6.12h3l-3.05,12.38h-3.83l-1.3-5.39c-.27-1.17-.46-2.3-.71-3.6h-.11c-.24,1.3-.42,2.45-.68,3.6l-1.26,5.39h-3.71Z"/><path class="cls-6" d="M177.6,91.73l1.48-2A5.37,5.37,0,0,0,182.4,91c1.24,0,1.79-.53,1.79-1.3,0-.93-1.28-1.35-2.59-1.86-1.57-.6-3.38-1.55-3.38-3.6,0-2.23,1.81-3.8,4.6-3.8A6.93,6.93,0,0,1,187,82l-1.46,2a4.77,4.77,0,0,0-2.68-1.06c-1.11,0-1.64.49-1.64,1.19,0,.91,1.22,1.24,2.52,1.72,1.64.62,3.45,1.44,3.45,3.74s-1.7,3.91-4.93,3.91A7.8,7.8,0,0,1,177.6,91.73Z"/><path class="cls-6" d="M197,91.42a16.84,16.84,0,0,1-6.66,3.1,10.24,10.24,0,0,0-1.7-2.1,18.59,18.59,0,0,0,6.3-1.92Zm3.36-1.53v5.17h-2.68V89.9h-8.56V87.78h8.56V86.69h2.68v1.08H209V89.9Zm6.46-3.49H191.26V78.87h6.15v-4.4h2.72v1.26h7.8V77.8h-7.8v1.06h6.68Zm-2.74-5.64H193.89v1h10.17Zm0,2.74H193.89v1h10.17Zm-1.42,6.66a56,56,0,0,1,6.52,2.5l-1.66,1.79a52.8,52.8,0,0,0-6.43-2.72Z"/><path class="cls-6" d="M216.17,87a22.33,22.33,0,0,0-.91-2.14V95.09H213V86.56a20.34,20.34,0,0,1-1.5,4,17.55,17.55,0,0,0-1-2.61A22.26,22.26,0,0,0,212.88,81h-1.81V78.56H213V74.44h2.26v4.11h1.48V81h-1.48v1c.49.69,1.75,2.72,2,3.25Zm14,1.53a13,13,0,0,1-2.43,3.25,2.21,2.21,0,0,0,1.37.8c.42,0,.69-.75.84-2.3a6.76,6.76,0,0,0,1.66,1.39c-.58,2.74-1.46,3.52-2.41,3.45a4.54,4.54,0,0,1-3.25-1.88A16.36,16.36,0,0,1,222.45,95a10.4,10.4,0,0,0-1.35-1.68,14.11,14.11,0,0,0,3.8-2,18.52,18.52,0,0,1-1.13-3.54h-3c0,.15,0,.33,0,.49.91.73,2.17,1.75,2.81,2.39l-1.59,1.55a20.14,20.14,0,0,0-1.66-1.59,9.1,9.1,0,0,1-3,4.42,8.14,8.14,0,0,0-1.75-1.5,7.18,7.18,0,0,0,3-5.75h-1.3v-2h6.17a71.66,71.66,0,0,1-.75-7.74,28.94,28.94,0,0,1-3,4.6l1.24-.13c-.11-.33-.2-.69-.29-1l1.53-.4a27.13,27.13,0,0,1,.88,3.18l-1.64.49a6.89,6.89,0,0,0-.13-.75,16.3,16.3,0,0,0-3.47.69c-.11-.35-.4-1.3-.62-1.79a2.19,2.19,0,0,0,1.11-1,16.82,16.82,0,0,0,1.06-1.61,6.06,6.06,0,0,0-1.77.38c-.11-.4-.42-1.28-.62-1.77a1.53,1.53,0,0,0,.8-.8,16.67,16.67,0,0,0,1.48-3.54l1.88.49a22.23,22.23,0,0,1-1.9,3.69l1-.09c.22-.44.44-.91.62-1.37l1.84.62c0-1.06-.09-2.21-.13-3.36h2.17a73,73,0,0,0,.93,11.19h2c-.37-.33-.8-.66-1.15-1l1-.82a5.31,5.31,0,0,0-1.57.4,17.31,17.31,0,0,0-.6-1.81,2.5,2.5,0,0,0,1.08-1,10.7,10.7,0,0,0,1-1.57,5.75,5.75,0,0,0-1.72.38c-.13-.4-.42-1.26-.64-1.77.29-.07.53-.35.77-.75a16,16,0,0,0,1.33-3.34l1.88.51a18.13,18.13,0,0,1-1.72,3.41l1-.07c.2-.44.4-.93.57-1.37l1.9.62a28.08,28.08,0,0,1-2.94,4.69L229,82.2c-.11-.31-.2-.64-.31-.93l1.5-.42a32.54,32.54,0,0,1,1,3.21l-1.57.55c0-.27-.11-.58-.2-.91l-1.39.22a17.69,17.69,0,0,1,1.68,1.35l-.57.53H231v2H228.4ZM226,87.82a15.25,15.25,0,0,0,.6,1.92,10.12,10.12,0,0,0,1.3-1.92Z"/><path class="cls-6" d="M233.32,96.77a22.1,22.1,0,0,0,0-21.16l2-.86a21.4,21.4,0,0,1,0,22.88Z"/></g></g></svg>