<svg xmlns="http://www.w3.org/2000/svg" viewBox="0 0 46.83 46.83"><defs><style>.cls-1{fill:#9cbf4c;}.cls-2{fill:#f3f3e5;}.cls-3{fill:#c24830;}</style></defs><title>spin</title><g id="圖層_2" data-name="圖層 2"><g id="圖層_1-2" data-name="圖層 1"><path class="cls-1" d="M23.41,23.41V0A23.3,23.3,0,0,0,6.86,6.86Z"/><path class="cls-2" d="M6.86,6.86A23.3,23.3,0,0,0,0,23.41H23.41Z"/><path class="cls-1" d="M0,23.41A23.33,23.33,0,0,0,6.86,40L23.41,23.41Z"/><path class="cls-2" d="M6.86,40a23.3,23.3,0,0,0,16.55,6.86V23.41Z"/><path class="cls-2" d="M23.41,23.41V0A23.33,23.33,0,0,1,40,6.86Z"/><path class="cls-1" d="M40,6.86a23.3,23.3,0,0,1,6.86,16.55H23.41Z"/><path class="cls-2" d="M46.83,23.41A23.33,23.33,0,0,1,40,40L23.41,23.41Z"/><path class="cls-1" d="M40,40a23.33,23.33,0,0,1-16.56,6.86V23.41Z"/><circle class="cls-3" cx="23.41" cy="23.41" r="8.36"/></g></g></svg>