<svg xmlns="http://www.w3.org/2000/svg" viewBox="0 0 102.68 51.34"><defs><style>.cls-1{fill:#009d98;}.cls-2{fill:none;stroke:#009d98;stroke-miterlimit:10;}.cls-3{fill:#fff;}</style></defs><title>top</title><g id="圖層_2" data-name="圖層 2"><g id="圖層_1-2" data-name="圖層 1"><path class="cls-1" d="M4.9,51.34a46.44,46.44,0,0,1,92.88,0"/><path class="cls-2" d="M.5,51.34a50.84,50.84,0,0,1,101.68,0"/><path class="cls-3" d="M37.59,24.21H33.31V22.29H44.18v1.92H39.89V36.87h-2.3Z"/><path class="cls-3" d="M45.35,29.52c0-4.69,2.6-7.51,6.34-7.51s6.36,2.82,6.36,7.51-2.61,7.61-6.36,7.61S45.35,34.22,45.35,29.52Zm10.35,0c0-3.43-1.59-5.51-4-5.51s-4,2.08-4,5.51,1.57,5.61,4,5.61S55.7,33,55.7,29.52Z"/><path class="cls-3" d="M61.09,22.29h4.42c3.24,0,5.56,1.11,5.56,4.4s-2.32,4.65-5.48,4.65h-2.2v5.53h-2.3Zm4.28,7.21c2.33,0,3.44-.89,3.44-2.81s-1.2-2.56-3.52-2.56h-1.9V29.5Z"/><path class="cls-3" d="M32.69,40.34v-1H72v1Z"/></g></g></svg>